<?xml version="1.0" encoding="UTF-8" standalone="no"?>
<!DOCTYPE svg PUBLIC "-//W3C//DTD SVG 1.1//EN"
 "http://www.w3.org/Graphics/SVG/1.1/DTD/svg11.dtd">
<!-- Generated by graphviz version 12.1.2 (20240928.0832)
 -->
<!-- Title: categories Pages: 1 -->
<svg width="660pt" height="910pt"
 viewBox="0.00 0.00 659.86 910.00" xmlns="http://www.w3.org/2000/svg" xmlns:xlink="http://www.w3.org/1999/xlink">
<g id="graph0" class="graph" transform="scale(1 1) rotate(0) translate(4 906)">
<title>categories</title>
<polygon fill="white" stroke="none" points="-4,4 -4,-906 655.86,-906 655.86,4 -4,4"/>
<!-- categories -->
<g id="node1" class="node">
<title>categories</title>
<polygon fill="#efefef" stroke="none" points="164.15,-323.4 164.15,-359 375.6,-359 375.6,-323.4 164.15,-323.4"/>
<polygon fill="none" stroke="black" points="164.15,-323.4 164.15,-359 375.6,-359 375.6,-323.4 164.15,-323.4"/>
<text text-anchor="start" x="171.15" y="-336.8" font-family="Arial Bold" font-size="18.00">categories</text>
<text text-anchor="start" x="244.11" y="-336.8" font-family="Arial" font-size="14.00">    </text>
<text text-anchor="start" x="275.23" y="-336.8" font-family="Arial" font-size="14.00" fill="#666666">[BASE TABLE]</text>
<polygon fill="none" stroke="black" points="164.15,-292.6 164.15,-323.4 375.6,-323.4 375.6,-292.6 164.15,-292.6"/>
<text text-anchor="start" x="171.15" y="-304.8" font-family="Arial" font-size="14.00">created_at </text>
<text text-anchor="start" x="241.2" y="-304.8" font-family="Arial" font-size="14.00" fill="#666666">[timestamp]</text>
<polygon fill="none" stroke="black" points="164.15,-261.8 164.15,-292.6 375.6,-292.6 375.6,-261.8 164.15,-261.8"/>
<text text-anchor="start" x="171.15" y="-274" font-family="Arial" font-size="14.00">description </text>
<text text-anchor="start" x="242.75" y="-274" font-family="Arial" font-size="14.00" fill="#666666">[text]</text>
<polygon fill="none" stroke="black" points="164.15,-231 164.15,-261.8 375.6,-261.8 375.6,-231 164.15,-231"/>
<text text-anchor="start" x="171.15" y="-243.2" font-family="Arial" font-size="14.00">id </text>
<text text-anchor="start" x="185.94" y="-243.2" font-family="Arial" font-size="14.00" fill="#666666">[bigint unsigned]</text>
<polygon fill="none" stroke="black" points="164.15,-200.2 164.15,-231 375.6,-231 375.6,-200.2 164.15,-200.2"/>
<text text-anchor="start" x="171.15" y="-212.4" font-family="Arial" font-size="14.00">is_active </text>
<text text-anchor="start" x="229.51" y="-212.4" font-family="Arial" font-size="14.00" fill="#666666">[tinyint(1)]</text>
<polygon fill="none" stroke="black" points="164.15,-169.4 164.15,-200.2 375.6,-200.2 375.6,-169.4 164.15,-169.4"/>
<text text-anchor="start" x="171.15" y="-181.6" font-family="Arial" font-size="14.00">name </text>
<text text-anchor="start" x="210.06" y="-181.6" font-family="Arial" font-size="14.00" fill="#666666">[varchar(255)]</text>
<polygon fill="none" stroke="black" points="164.15,-138.6 164.15,-169.4 375.6,-169.4 375.6,-138.6 164.15,-138.6"/>
<text text-anchor="start" x="171.15" y="-150.8" font-family="Arial" font-size="14.00">parent_id </text>
<text text-anchor="start" x="233.42" y="-150.8" font-family="Arial" font-size="14.00" fill="#666666">[bigint unsigned]</text>
<polygon fill="none" stroke="black" points="164.15,-107.8 164.15,-138.6 375.6,-138.6 375.6,-107.8 164.15,-107.8"/>
<text text-anchor="start" x="171.15" y="-120" font-family="Arial" font-size="14.00">slug </text>
<text text-anchor="start" x="200.73" y="-120" font-family="Arial" font-size="14.00" fill="#666666">[varchar(255)]</text>
<polygon fill="none" stroke="black" points="164.15,-77 164.15,-107.8 375.6,-107.8 375.6,-77 164.15,-77"/>
<text text-anchor="start" x="171.15" y="-89.2" font-family="Arial" font-size="14.00">sort_order </text>
<text text-anchor="start" x="238.85" y="-89.2" font-family="Arial" font-size="14.00" fill="#666666">[int]</text>
<polygon fill="none" stroke="black" points="164.15,-46.2 164.15,-77 375.6,-77 375.6,-46.2 164.15,-46.2"/>
<text text-anchor="start" x="171.15" y="-58.4" font-family="Arial" font-size="14.00">updated_at </text>
<text text-anchor="start" x="245.11" y="-58.4" font-family="Arial" font-size="14.00" fill="#666666">[timestamp]</text>
<polygon fill="none" stroke="black" stroke-width="3" points="162.65,-44.7 162.65,-360.5 377.1,-360.5 377.1,-44.7 162.65,-44.7"/>
</g>
<!-- categories&#45;&gt;categories -->
<g id="edge1" class="edge">
<title>categories:parent_id&#45;&gt;categories:id</title>
<path fill="none" stroke="black" d="M271.26,-179.21C278.85,-335.41 278.39,-639.7 269.88,-639.7 261.18,-639.7 260.89,-408.74 268.99,-261.68"/>
<polygon fill="black" stroke="black" points="271.27,-179.46 275.25,-169.24 271,-174.13 270.78,-169.8 270.78,-169.8 270.78,-169.8 271,-174.13 266.27,-169.7 271.27,-179.46"/>
<text text-anchor="start" x="7" y="-179.14" font-family="Arial" font-size="10.00">FOREIGN KEY (parent_id) REFERENCES categories (id)</text>
</g>
<!-- products -->
<g id="node2" class="node">
<title>products</title>
<polygon fill="#efefef" stroke="none" points="169.64,-823.2 169.64,-858.8 370.12,-858.8 370.12,-823.2 169.64,-823.2"/>
<polygon fill="none" stroke="black" points="169.64,-823.2 169.64,-858.8 370.12,-858.8 370.12,-823.2 169.64,-823.2"/>
<text text-anchor="start" x="176.64" y="-836.6" font-family="Arial Bold" font-size="18.00">products</text>
<text text-anchor="start" x="238.63" y="-836.6" font-family="Arial" font-size="14.00">    </text>
<text text-anchor="start" x="269.74" y="-836.6" font-family="Arial" font-size="14.00" fill="#666666">[BASE TABLE]</text>
<polygon fill="none" stroke="black" points="169.64,-792.4 169.64,-823.2 370.12,-823.2 370.12,-792.4 169.64,-792.4"/>
<text text-anchor="start" x="176.64" y="-804.6" font-family="Arial" font-size="14.00">category_id </text>
<text text-anchor="start" x="252.91" y="-804.6" font-family="Arial" font-size="14.00" fill="#666666">[bigint unsigned]</text>
<polygon fill="none" stroke="black" points="169.64,-761.6 169.64,-792.4 370.12,-792.4 370.12,-761.6 169.64,-761.6"/>
<text text-anchor="start" x="176.64" y="-773.8" font-family="Arial" font-size="14.00">created_at </text>
<text text-anchor="start" x="246.69" y="-773.8" font-family="Arial" font-size="14.00" fill="#666666">[timestamp]</text>
<polygon fill="none" stroke="black" points="169.64,-730.8 169.64,-761.6 370.12,-761.6 370.12,-730.8 169.64,-730.8"/>
<text text-anchor="start" x="176.64" y="-743" font-family="Arial" font-size="14.00">deleted_at </text>
<text text-anchor="start" x="245.92" y="-743" font-family="Arial" font-size="14.00" fill="#666666">[timestamp]</text>
<polygon fill="none" stroke="black" points="169.64,-700 169.64,-730.8 370.12,-730.8 370.12,-700 169.64,-700"/>
<text text-anchor="start" x="176.64" y="-712.2" font-family="Arial" font-size="14.00">description </text>
<text text-anchor="start" x="248.23" y="-712.2" font-family="Arial" font-size="14.00" fill="#666666">[text]</text>
<polygon fill="none" stroke="black" points="169.64,-669.2 169.64,-700 370.12,-700 370.12,-669.2 169.64,-669.2"/>
<text text-anchor="start" x="176.64" y="-681.4" font-family="Arial" font-size="14.00">id </text>
<text text-anchor="start" x="191.42" y="-681.4" font-family="Arial" font-size="14.00" fill="#666666">[bigint unsigned]</text>
<polygon fill="none" stroke="black" points="169.64,-638.4 169.64,-669.2 370.12,-669.2 370.12,-638.4 169.64,-638.4"/>
<text text-anchor="start" x="176.64" y="-650.6" font-family="Arial" font-size="14.00">is_active </text>
<text text-anchor="start" x="235" y="-650.6" font-family="Arial" font-size="14.00" fill="#666666">[tinyint(1)]</text>
<polygon fill="none" stroke="black" points="169.64,-607.6 169.64,-638.4 370.12,-638.4 370.12,-607.6 169.64,-607.6"/>
<text text-anchor="start" x="176.64" y="-619.8" font-family="Arial" font-size="14.00">name </text>
<text text-anchor="start" x="215.55" y="-619.8" font-family="Arial" font-size="14.00" fill="#666666">[varchar(255)]</text>
<polygon fill="none" stroke="black" points="169.64,-576.8 169.64,-607.6 370.12,-607.6 370.12,-576.8 169.64,-576.8"/>
<text text-anchor="start" x="176.64" y="-589" font-family="Arial" font-size="14.00">price </text>
<text text-anchor="start" x="210.87" y="-589" font-family="Arial" font-size="14.00" fill="#666666">[decimal(10,2)]</text>
<polygon fill="none" stroke="black" points="169.64,-546 169.64,-576.8 370.12,-576.8 370.12,-546 169.64,-546"/>
<text text-anchor="start" x="176.64" y="-558.2" font-family="Arial" font-size="14.00">slug </text>
<text text-anchor="start" x="206.21" y="-558.2" font-family="Arial" font-size="14.00" fill="#666666">[varchar(255)]</text>
<polygon fill="none" stroke="black" points="169.64,-515.2 169.64,-546 370.12,-546 370.12,-515.2 169.64,-515.2"/>
<text text-anchor="start" x="176.64" y="-527.4" font-family="Arial" font-size="14.00">stock </text>
<text text-anchor="start" x="213.2" y="-527.4" font-family="Arial" font-size="14.00" fill="#666666">[int]</text>
<polygon fill="none" stroke="black" points="169.64,-484.4 169.64,-515.2 370.12,-515.2 370.12,-484.4 169.64,-484.4"/>
<text text-anchor="start" x="176.64" y="-496.6" font-family="Arial" font-size="14.00">updated_at </text>
<text text-anchor="start" x="250.6" y="-496.6" font-family="Arial" font-size="14.00" fill="#666666">[timestamp]</text>
</g>
<!-- products&#45;&gt;categories -->
<g id="edge2" class="edge">
<title>products:category_id&#45;&gt;categories:id</title>
<path fill="none" stroke="black" d="M380.51,-803.28C433.89,-750.15 435.69,-246.4 376.6,-246.4"/>
<polygon fill="black" stroke="black" points="380.43,-803.32 369.47,-803.6 375.62,-805.63 371.72,-807.51 371.72,-807.51 371.72,-807.51 375.62,-805.63 373.37,-811.71 380.43,-803.32"/>
<text text-anchor="start" x="378.12" y="-817.8" font-family="Arial" font-size="10.00">FOREIGN KEY (category_id) REFERENCES categories (id)</text>
</g>
</g>
</svg>
