<?xml version="1.0" encoding="UTF-8" standalone="no"?>
<!DOCTYPE svg PUBLIC "-//W3C//DTD SVG 1.1//EN"
 "http://www.w3.org/Graphics/SVG/1.1/DTD/svg11.dtd">
<!-- Generated by graphviz version 12.1.2 (20240928.0832)
 -->
<!-- Title: orders Pages: 1 -->
<svg width="766pt" height="1314pt"
 viewBox="0.00 0.00 766.42 1314.40" xmlns="http://www.w3.org/2000/svg" xmlns:xlink="http://www.w3.org/1999/xlink">
<g id="graph0" class="graph" transform="scale(1 1) rotate(0) translate(4 1310.4)">
<title>orders</title>
<polygon fill="white" stroke="none" points="-4,4 -4,-1310.4 762.42,-1310.4 762.42,4 -4,4"/>
<!-- orders -->
<g id="node1" class="node">
<title>orders</title>
<polygon fill="#efefef" stroke="none" points="158.59,-789.4 158.59,-825 540.28,-825 540.28,-789.4 158.59,-789.4"/>
<polygon fill="none" stroke="black" points="158.59,-789.4 158.59,-825 540.28,-825 540.28,-789.4 158.59,-789.4"/>
<text text-anchor="start" x="264.7" y="-802.8" font-family="Arial Bold" font-size="18.00">orders</text>
<text text-anchor="start" x="309.68" y="-802.8" font-family="Arial" font-size="14.00">    </text>
<text text-anchor="start" x="340.8" y="-802.8" font-family="Arial" font-size="14.00" fill="#666666">[BASE TABLE]</text>
<polygon fill="none" stroke="black" points="158.59,-758.6 158.59,-789.4 540.28,-789.4 540.28,-758.6 158.59,-758.6"/>
<text text-anchor="start" x="165.59" y="-770.8" font-family="Arial" font-size="14.00">created_at </text>
<text text-anchor="start" x="235.63" y="-770.8" font-family="Arial" font-size="14.00" fill="#666666">[timestamp]</text>
<polygon fill="none" stroke="black" points="158.59,-727.8 158.59,-758.6 540.28,-758.6 540.28,-727.8 158.59,-727.8"/>
<text text-anchor="start" x="165.59" y="-740" font-family="Arial" font-size="14.00">id </text>
<text text-anchor="start" x="180.37" y="-740" font-family="Arial" font-size="14.00" fill="#666666">[bigint unsigned]</text>
<polygon fill="none" stroke="black" points="158.59,-697 158.59,-727.8 540.28,-727.8 540.28,-697 158.59,-697"/>
<text text-anchor="start" x="165.59" y="-709.2" font-family="Arial" font-size="14.00">order_number </text>
<text text-anchor="start" x="257.41" y="-709.2" font-family="Arial" font-size="14.00" fill="#666666">[varchar(255)]</text>
<polygon fill="none" stroke="black" points="158.59,-666.2 158.59,-697 540.28,-697 540.28,-666.2 158.59,-666.2"/>
<text text-anchor="start" x="165.59" y="-678.4" font-family="Arial" font-size="14.00">shipping_address </text>
<text text-anchor="start" x="279.22" y="-678.4" font-family="Arial" font-size="14.00" fill="#666666">[varchar(255)]</text>
<polygon fill="none" stroke="black" points="158.59,-635.4 158.59,-666.2 540.28,-666.2 540.28,-635.4 158.59,-635.4"/>
<text text-anchor="start" x="165.59" y="-647.6" font-family="Arial" font-size="14.00">shipping_city </text>
<text text-anchor="start" x="250.41" y="-647.6" font-family="Arial" font-size="14.00" fill="#666666">[varchar(255)]</text>
<polygon fill="none" stroke="black" points="158.59,-604.6 158.59,-635.4 540.28,-635.4 540.28,-604.6 158.59,-604.6"/>
<text text-anchor="start" x="165.59" y="-616.8" font-family="Arial" font-size="14.00">shipping_country </text>
<text text-anchor="start" x="275.32" y="-616.8" font-family="Arial" font-size="14.00" fill="#666666">[varchar(255)]</text>
<polygon fill="none" stroke="black" points="158.59,-573.8 158.59,-604.6 540.28,-604.6 540.28,-573.8 158.59,-573.8"/>
<text text-anchor="start" x="165.59" y="-586" font-family="Arial" font-size="14.00">shipping_phone </text>
<text text-anchor="start" x="268.34" y="-586" font-family="Arial" font-size="14.00" fill="#666666">[varchar(255)]</text>
<polygon fill="none" stroke="black" points="158.59,-543 158.59,-573.8 540.28,-573.8 540.28,-543 158.59,-543"/>
<text text-anchor="start" x="165.59" y="-555.2" font-family="Arial" font-size="14.00">status </text>
<text text-anchor="start" x="206.83" y="-555.2" font-family="Arial" font-size="14.00" fill="#666666">[enum(&#39;pending&#39;,&#39;processing&#39;,&#39;completed&#39;,&#39;cancelled&#39;)]</text>
<polygon fill="none" stroke="black" points="158.59,-512.2 158.59,-543 540.28,-543 540.28,-512.2 158.59,-512.2"/>
<text text-anchor="start" x="165.59" y="-524.4" font-family="Arial" font-size="14.00">total_amount </text>
<text text-anchor="start" x="250.42" y="-524.4" font-family="Arial" font-size="14.00" fill="#666666">[decimal(10,2)]</text>
<polygon fill="none" stroke="black" points="158.59,-481.4 158.59,-512.2 540.28,-512.2 540.28,-481.4 158.59,-481.4"/>
<text text-anchor="start" x="165.59" y="-493.6" font-family="Arial" font-size="14.00">updated_at </text>
<text text-anchor="start" x="239.54" y="-493.6" font-family="Arial" font-size="14.00" fill="#666666">[timestamp]</text>
<polygon fill="none" stroke="black" points="158.59,-450.6 158.59,-481.4 540.28,-481.4 540.28,-450.6 158.59,-450.6"/>
<text text-anchor="start" x="165.59" y="-462.8" font-family="Arial" font-size="14.00">user_id </text>
<text text-anchor="start" x="215.39" y="-462.8" font-family="Arial" font-size="14.00" fill="#666666">[bigint unsigned]</text>
<polygon fill="none" stroke="black" stroke-width="3" points="157.09,-449.1 157.09,-826.5 541.78,-826.5 541.78,-449.1 157.09,-449.1"/>
</g>
<!-- users -->
<g id="node4" class="node">
<title>users</title>
<polygon fill="#efefef" stroke="none" points="244,-289.6 244,-325.2 454.86,-325.2 454.86,-289.6 244,-289.6"/>
<polygon fill="none" stroke="black" points="244,-289.6 244,-325.2 454.86,-325.2 454.86,-289.6 244,-289.6"/>
<text text-anchor="start" x="268.69" y="-303" font-family="Arial Bold" font-size="18.00">users</text>
<text text-anchor="start" x="305.68" y="-303" font-family="Arial" font-size="14.00">    </text>
<text text-anchor="start" x="336.8" y="-303" font-family="Arial" font-size="14.00" fill="#666666">[BASE TABLE]</text>
<polygon fill="none" stroke="black" points="244,-258.8 244,-289.6 454.86,-289.6 454.86,-258.8 244,-258.8"/>
<text text-anchor="start" x="251" y="-271" font-family="Arial" font-size="14.00">created_at </text>
<text text-anchor="start" x="321.05" y="-271" font-family="Arial" font-size="14.00" fill="#666666">[timestamp]</text>
<polygon fill="none" stroke="black" points="244,-228 244,-258.8 454.86,-258.8 454.86,-228 244,-228"/>
<text text-anchor="start" x="251" y="-240.2" font-family="Arial" font-size="14.00">email </text>
<text text-anchor="start" x="288.35" y="-240.2" font-family="Arial" font-size="14.00" fill="#666666">[varchar(255)]</text>
<polygon fill="none" stroke="black" points="244,-197.2 244,-228 454.86,-228 454.86,-197.2 244,-197.2"/>
<text text-anchor="start" x="251" y="-209.4" font-family="Arial" font-size="14.00">email_verified_at </text>
<text text-anchor="start" x="360.72" y="-209.4" font-family="Arial" font-size="14.00" fill="#666666">[timestamp]</text>
<polygon fill="none" stroke="black" points="244,-166.4 244,-197.2 454.86,-197.2 454.86,-166.4 244,-166.4"/>
<text text-anchor="start" x="251" y="-178.6" font-family="Arial" font-size="14.00">id </text>
<text text-anchor="start" x="265.79" y="-178.6" font-family="Arial" font-size="14.00" fill="#666666">[bigint unsigned]</text>
<polygon fill="none" stroke="black" points="244,-135.6 244,-166.4 454.86,-166.4 454.86,-135.6 244,-135.6"/>
<text text-anchor="start" x="251" y="-147.8" font-family="Arial" font-size="14.00">name </text>
<text text-anchor="start" x="289.91" y="-147.8" font-family="Arial" font-size="14.00" fill="#666666">[varchar(255)]</text>
<polygon fill="none" stroke="black" points="244,-104.8 244,-135.6 454.86,-135.6 454.86,-104.8 244,-104.8"/>
<text text-anchor="start" x="251" y="-117" font-family="Arial" font-size="14.00">password </text>
<text text-anchor="start" x="314.81" y="-117" font-family="Arial" font-size="14.00" fill="#666666">[varchar(255)]</text>
<polygon fill="none" stroke="black" points="244,-74 244,-104.8 454.86,-104.8 454.86,-74 244,-74"/>
<text text-anchor="start" x="251" y="-86.2" font-family="Arial" font-size="14.00">remember_token </text>
<text text-anchor="start" x="360.72" y="-86.2" font-family="Arial" font-size="14.00" fill="#666666">[varchar(100)]</text>
<polygon fill="none" stroke="black" points="244,-43.2 244,-74 454.86,-74 454.86,-43.2 244,-43.2"/>
<text text-anchor="start" x="251" y="-55.4" font-family="Arial" font-size="14.00">updated_at </text>
<text text-anchor="start" x="324.96" y="-55.4" font-family="Arial" font-size="14.00" fill="#666666">[timestamp]</text>
</g>
<!-- orders&#45;&gt;users -->
<g id="edge3" class="edge">
<title>orders:user_id&#45;&gt;users:id</title>
<path fill="none" stroke="black" d="M350.38,-439.24C359.42,-394.1 430.3,-417.98 454.86,-368.4 491.68,-294.08 538.8,-181.8 455.86,-181.8"/>
<polygon fill="black" stroke="black" points="350.38,-439.31 344.98,-448.86 349.89,-444.62 349.49,-448.93 349.49,-448.93 349.49,-448.93 349.89,-444.62 353.94,-449.68 350.38,-439.31"/>
<text text-anchor="start" x="116.27" y="-459.6" font-family="Arial" font-size="10.00">FOREIGN KEY (user_id) REFERENCES users (id)</text>
</g>
<!-- order_items -->
<g id="node2" class="node">
<title>order_items</title>
<polygon fill="#efefef" stroke="none" points="43.2,-1212.2 43.2,-1247.8 267.66,-1247.8 267.66,-1212.2 43.2,-1212.2"/>
<polygon fill="none" stroke="black" points="43.2,-1212.2 43.2,-1247.8 267.66,-1247.8 267.66,-1212.2 43.2,-1212.2"/>
<text text-anchor="start" x="50.2" y="-1225.6" font-family="Arial Bold" font-size="18.00">order_items</text>
<text text-anchor="start" x="136.17" y="-1225.6" font-family="Arial" font-size="14.00">    </text>
<text text-anchor="start" x="167.29" y="-1225.6" font-family="Arial" font-size="14.00" fill="#666666">[BASE TABLE]</text>
<polygon fill="none" stroke="black" points="43.2,-1181.4 43.2,-1212.2 267.66,-1212.2 267.66,-1181.4 43.2,-1181.4"/>
<text text-anchor="start" x="50.2" y="-1193.6" font-family="Arial" font-size="14.00">created_at </text>
<text text-anchor="start" x="120.25" y="-1193.6" font-family="Arial" font-size="14.00" fill="#666666">[timestamp]</text>
<polygon fill="none" stroke="black" points="43.2,-1150.6 43.2,-1181.4 267.66,-1181.4 267.66,-1150.6 43.2,-1150.6"/>
<text text-anchor="start" x="50.2" y="-1162.8" font-family="Arial" font-size="14.00">id </text>
<text text-anchor="start" x="64.99" y="-1162.8" font-family="Arial" font-size="14.00" fill="#666666">[bigint unsigned]</text>
<polygon fill="none" stroke="black" points="43.2,-1119.8 43.2,-1150.6 267.66,-1150.6 267.66,-1119.8 43.2,-1119.8"/>
<text text-anchor="start" x="50.2" y="-1132" font-family="Arial" font-size="14.00">order_id </text>
<text text-anchor="start" x="105.45" y="-1132" font-family="Arial" font-size="14.00" fill="#666666">[bigint unsigned]</text>
<polygon fill="none" stroke="black" points="43.2,-1089 43.2,-1119.8 267.66,-1119.8 267.66,-1089 43.2,-1089"/>
<text text-anchor="start" x="50.2" y="-1101.2" font-family="Arial" font-size="14.00">product_id </text>
<text text-anchor="start" x="119.47" y="-1101.2" font-family="Arial" font-size="14.00" fill="#666666">[bigint unsigned]</text>
<polygon fill="none" stroke="black" points="43.2,-1058.2 43.2,-1089 267.66,-1089 267.66,-1058.2 43.2,-1058.2"/>
<text text-anchor="start" x="50.2" y="-1070.4" font-family="Arial" font-size="14.00">quantity </text>
<text text-anchor="start" x="103.12" y="-1070.4" font-family="Arial" font-size="14.00" fill="#666666">[int]</text>
<polygon fill="none" stroke="black" points="43.2,-1027.4 43.2,-1058.2 267.66,-1058.2 267.66,-1027.4 43.2,-1027.4"/>
<text text-anchor="start" x="50.2" y="-1039.6" font-family="Arial" font-size="14.00">subtotal </text>
<text text-anchor="start" x="103.12" y="-1039.6" font-family="Arial" font-size="14.00" fill="#666666">[decimal(10,2)]</text>
<polygon fill="none" stroke="black" points="43.2,-996.6 43.2,-1027.4 267.66,-1027.4 267.66,-996.6 43.2,-996.6"/>
<text text-anchor="start" x="50.2" y="-1008.8" font-family="Arial" font-size="14.00">unit_price </text>
<text text-anchor="start" x="114.79" y="-1008.8" font-family="Arial" font-size="14.00" fill="#666666">[decimal(10,2)]</text>
<polygon fill="none" stroke="black" points="43.2,-965.8 43.2,-996.6 267.66,-996.6 267.66,-965.8 43.2,-965.8"/>
<text text-anchor="start" x="50.2" y="-978" font-family="Arial" font-size="14.00">updated_at </text>
<text text-anchor="start" x="124.16" y="-978" font-family="Arial" font-size="14.00" fill="#666666">[timestamp]</text>
</g>
<!-- order_items&#45;&gt;orders -->
<g id="edge1" class="edge">
<title>order_items:order_id&#45;&gt;orders:id</title>
<path fill="none" stroke="black" d="M278.49,-1132.18C312.32,-1109.02 291.08,-959.33 267.66,-922.6 238.85,-877.41 187.47,-916.34 158.59,-871.2 127.93,-823.28 100.7,-743.2 157.59,-743.2"/>
<polygon fill="black" stroke="black" points="278.54,-1132.16 267.66,-1130.8 273.44,-1133.73 269.3,-1135 269.3,-1135 269.3,-1135 273.44,-1133.73 270.31,-1139.4 278.54,-1132.16"/>
<text text-anchor="start" x="275.66" y="-1145.2" font-family="Arial" font-size="10.00">FOREIGN KEY (order_id) REFERENCES orders (id)</text>
</g>
<!-- payments -->
<g id="node3" class="node">
<title>payments</title>
<polygon fill="#efefef" stroke="none" points="371.64,-1227.6 371.64,-1263.2 715.22,-1263.2 715.22,-1227.6 371.64,-1227.6"/>
<polygon fill="none" stroke="black" points="371.64,-1227.6 371.64,-1263.2 715.22,-1263.2 715.22,-1227.6 371.64,-1227.6"/>
<text text-anchor="start" x="446.69" y="-1241" font-family="Arial Bold" font-size="18.00">payments</text>
<text text-anchor="start" x="515.68" y="-1241" font-family="Arial" font-size="14.00">    </text>
<text text-anchor="start" x="546.8" y="-1241" font-family="Arial" font-size="14.00" fill="#666666">[BASE TABLE]</text>
<polygon fill="none" stroke="black" points="371.64,-1196.8 371.64,-1227.6 715.22,-1227.6 715.22,-1196.8 371.64,-1196.8"/>
<text text-anchor="start" x="378.64" y="-1209" font-family="Arial" font-size="14.00">amount </text>
<text text-anchor="start" x="429.23" y="-1209" font-family="Arial" font-size="14.00" fill="#666666">[decimal(10,2)]</text>
<polygon fill="none" stroke="black" points="371.64,-1166 371.64,-1196.8 715.22,-1196.8 715.22,-1166 371.64,-1166"/>
<text text-anchor="start" x="378.64" y="-1178.2" font-family="Arial" font-size="14.00">created_at </text>
<text text-anchor="start" x="448.69" y="-1178.2" font-family="Arial" font-size="14.00" fill="#666666">[timestamp]</text>
<polygon fill="none" stroke="black" points="371.64,-1135.2 371.64,-1166 715.22,-1166 715.22,-1135.2 371.64,-1135.2"/>
<text text-anchor="start" x="378.64" y="-1147.4" font-family="Arial" font-size="14.00">id </text>
<text text-anchor="start" x="393.43" y="-1147.4" font-family="Arial" font-size="14.00" fill="#666666">[bigint unsigned]</text>
<polygon fill="none" stroke="black" points="371.64,-1104.4 371.64,-1135.2 715.22,-1135.2 715.22,-1104.4 371.64,-1104.4"/>
<text text-anchor="start" x="378.64" y="-1116.6" font-family="Arial" font-size="14.00">order_id </text>
<text text-anchor="start" x="433.9" y="-1116.6" font-family="Arial" font-size="14.00" fill="#666666">[bigint unsigned]</text>
<polygon fill="none" stroke="black" points="371.64,-1073.6 371.64,-1104.4 715.22,-1104.4 715.22,-1073.6 371.64,-1073.6"/>
<text text-anchor="start" x="378.64" y="-1085.8" font-family="Arial" font-size="14.00">paid_at </text>
<text text-anchor="start" x="428.47" y="-1085.8" font-family="Arial" font-size="14.00" fill="#666666">[timestamp]</text>
<polygon fill="none" stroke="black" points="371.64,-1042.8 371.64,-1073.6 715.22,-1073.6 715.22,-1042.8 371.64,-1042.8"/>
<text text-anchor="start" x="378.64" y="-1055" font-family="Arial" font-size="14.00">payment_method </text>
<text text-anchor="start" x="490.71" y="-1055" font-family="Arial" font-size="14.00" fill="#666666">[varchar(255)]</text>
<polygon fill="none" stroke="black" points="371.64,-1012 371.64,-1042.8 715.22,-1042.8 715.22,-1012 371.64,-1012"/>
<text text-anchor="start" x="378.64" y="-1024.2" font-family="Arial" font-size="14.00">status </text>
<text text-anchor="start" x="419.89" y="-1024.2" font-family="Arial" font-size="14.00" fill="#666666">[enum(&#39;pending&#39;,&#39;completed&#39;,&#39;failed&#39;,&#39;refunded&#39;)]</text>
<polygon fill="none" stroke="black" points="371.64,-981.2 371.64,-1012 715.22,-1012 715.22,-981.2 371.64,-981.2"/>
<text text-anchor="start" x="378.64" y="-993.4" font-family="Arial" font-size="14.00">transaction_id </text>
<text text-anchor="start" x="469.7" y="-993.4" font-family="Arial" font-size="14.00" fill="#666666">[varchar(255)]</text>
<polygon fill="none" stroke="black" points="371.64,-950.4 371.64,-981.2 715.22,-981.2 715.22,-950.4 371.64,-950.4"/>
<text text-anchor="start" x="378.64" y="-962.6" font-family="Arial" font-size="14.00">updated_at </text>
<text text-anchor="start" x="452.6" y="-962.6" font-family="Arial" font-size="14.00" fill="#666666">[timestamp]</text>
</g>
<!-- payments&#45;&gt;orders -->
<g id="edge2" class="edge">
<title>payments:order_id&#45;&gt;orders:id</title>
<path fill="none" stroke="black" d="M360.75,-1116.73C326.35,-1093.16 344.17,-941 371.64,-907.2 419.99,-847.73 491.84,-930.59 540.28,-871.2 576.23,-827.11 598.17,-743.2 541.28,-743.2"/>
<polygon fill="black" stroke="black" points="360.77,-1116.74 368.99,-1124 365.87,-1118.32 370.01,-1119.6 370.01,-1119.6 370.01,-1119.6 365.87,-1118.32 371.66,-1115.4 360.77,-1116.74"/>
<text text-anchor="start" x="377.64" y="-1103.8" font-family="Arial" font-size="10.00">FOREIGN KEY (order_id) REFERENCES orders (id)</text>
</g>
</g>
</svg>
