<?xml version="1.0" encoding="UTF-8" standalone="no"?>
<!DOCTYPE svg PUBLIC "-//W3C//DTD SVG 1.1//EN"
 "http://www.w3.org/Graphics/SVG/1.1/DTD/svg11.dtd">
<!-- Generated by graphviz version 12.1.2 (20240928.0832)
 -->
<!-- Title: order_items Pages: 1 -->
<svg width="820pt" height="879pt"
 viewBox="0.00 0.00 820.24 879.20" xmlns="http://www.w3.org/2000/svg" xmlns:xlink="http://www.w3.org/1999/xlink">
<g id="graph0" class="graph" transform="scale(1 1) rotate(0) translate(4 875.2)">
<title>order_items</title>
<polygon fill="white" stroke="none" points="-4,4 -4,-875.2 816.24,-875.2 816.24,4 -4,4"/>
<!-- order_items -->
<g id="node1" class="node">
<title>order_items</title>
<polygon fill="#efefef" stroke="none" points="318.81,-789.4 318.81,-825 543.28,-825 543.28,-789.4 318.81,-789.4"/>
<polygon fill="none" stroke="black" points="318.81,-789.4 318.81,-825 543.28,-825 543.28,-789.4 318.81,-789.4"/>
<text text-anchor="start" x="325.81" y="-802.8" font-family="Arial Bold" font-size="18.00">order_items</text>
<text text-anchor="start" x="411.79" y="-802.8" font-family="Arial" font-size="14.00">    </text>
<text text-anchor="start" x="442.91" y="-802.8" font-family="Arial" font-size="14.00" fill="#666666">[BASE TABLE]</text>
<polygon fill="none" stroke="black" points="318.81,-758.6 318.81,-789.4 543.28,-789.4 543.28,-758.6 318.81,-758.6"/>
<text text-anchor="start" x="325.81" y="-770.8" font-family="Arial" font-size="14.00">created_at </text>
<text text-anchor="start" x="395.86" y="-770.8" font-family="Arial" font-size="14.00" fill="#666666">[timestamp]</text>
<polygon fill="none" stroke="black" points="318.81,-727.8 318.81,-758.6 543.28,-758.6 543.28,-727.8 318.81,-727.8"/>
<text text-anchor="start" x="325.81" y="-740" font-family="Arial" font-size="14.00">id </text>
<text text-anchor="start" x="340.6" y="-740" font-family="Arial" font-size="14.00" fill="#666666">[bigint unsigned]</text>
<polygon fill="none" stroke="black" points="318.81,-697 318.81,-727.8 543.28,-727.8 543.28,-697 318.81,-697"/>
<text text-anchor="start" x="325.81" y="-709.2" font-family="Arial" font-size="14.00">order_id </text>
<text text-anchor="start" x="381.07" y="-709.2" font-family="Arial" font-size="14.00" fill="#666666">[bigint unsigned]</text>
<polygon fill="none" stroke="black" points="318.81,-666.2 318.81,-697 543.28,-697 543.28,-666.2 318.81,-666.2"/>
<text text-anchor="start" x="325.81" y="-678.4" font-family="Arial" font-size="14.00">product_id </text>
<text text-anchor="start" x="395.08" y="-678.4" font-family="Arial" font-size="14.00" fill="#666666">[bigint unsigned]</text>
<polygon fill="none" stroke="black" points="318.81,-635.4 318.81,-666.2 543.28,-666.2 543.28,-635.4 318.81,-635.4"/>
<text text-anchor="start" x="325.81" y="-647.6" font-family="Arial" font-size="14.00">quantity </text>
<text text-anchor="start" x="378.74" y="-647.6" font-family="Arial" font-size="14.00" fill="#666666">[int]</text>
<polygon fill="none" stroke="black" points="318.81,-604.6 318.81,-635.4 543.28,-635.4 543.28,-604.6 318.81,-604.6"/>
<text text-anchor="start" x="325.81" y="-616.8" font-family="Arial" font-size="14.00">subtotal </text>
<text text-anchor="start" x="378.74" y="-616.8" font-family="Arial" font-size="14.00" fill="#666666">[decimal(10,2)]</text>
<polygon fill="none" stroke="black" points="318.81,-573.8 318.81,-604.6 543.28,-604.6 543.28,-573.8 318.81,-573.8"/>
<text text-anchor="start" x="325.81" y="-586" font-family="Arial" font-size="14.00">unit_price </text>
<text text-anchor="start" x="390.41" y="-586" font-family="Arial" font-size="14.00" fill="#666666">[decimal(10,2)]</text>
<polygon fill="none" stroke="black" points="318.81,-543 318.81,-573.8 543.28,-573.8 543.28,-543 318.81,-543"/>
<text text-anchor="start" x="325.81" y="-555.2" font-family="Arial" font-size="14.00">updated_at </text>
<text text-anchor="start" x="399.77" y="-555.2" font-family="Arial" font-size="14.00" fill="#666666">[timestamp]</text>
<polygon fill="none" stroke="black" stroke-width="3" points="317.31,-541.5 317.31,-826.5 544.78,-826.5 544.78,-541.5 317.31,-541.5"/>
</g>
<!-- orders -->
<g id="node2" class="node">
<title>orders</title>
<polygon fill="#efefef" stroke="none" points="43.2,-382 43.2,-417.6 424.89,-417.6 424.89,-382 43.2,-382"/>
<polygon fill="none" stroke="black" points="43.2,-382 43.2,-417.6 424.89,-417.6 424.89,-382 43.2,-382"/>
<text text-anchor="start" x="149.31" y="-395.4" font-family="Arial Bold" font-size="18.00">orders</text>
<text text-anchor="start" x="194.29" y="-395.4" font-family="Arial" font-size="14.00">    </text>
<text text-anchor="start" x="225.41" y="-395.4" font-family="Arial" font-size="14.00" fill="#666666">[BASE TABLE]</text>
<polygon fill="none" stroke="black" points="43.2,-351.2 43.2,-382 424.89,-382 424.89,-351.2 43.2,-351.2"/>
<text text-anchor="start" x="50.2" y="-363.4" font-family="Arial" font-size="14.00">created_at </text>
<text text-anchor="start" x="120.25" y="-363.4" font-family="Arial" font-size="14.00" fill="#666666">[timestamp]</text>
<polygon fill="none" stroke="black" points="43.2,-320.4 43.2,-351.2 424.89,-351.2 424.89,-320.4 43.2,-320.4"/>
<text text-anchor="start" x="50.2" y="-332.6" font-family="Arial" font-size="14.00">id </text>
<text text-anchor="start" x="64.99" y="-332.6" font-family="Arial" font-size="14.00" fill="#666666">[bigint unsigned]</text>
<polygon fill="none" stroke="black" points="43.2,-289.6 43.2,-320.4 424.89,-320.4 424.89,-289.6 43.2,-289.6"/>
<text text-anchor="start" x="50.2" y="-301.8" font-family="Arial" font-size="14.00">order_number </text>
<text text-anchor="start" x="142.03" y="-301.8" font-family="Arial" font-size="14.00" fill="#666666">[varchar(255)]</text>
<polygon fill="none" stroke="black" points="43.2,-258.8 43.2,-289.6 424.89,-289.6 424.89,-258.8 43.2,-258.8"/>
<text text-anchor="start" x="50.2" y="-271" font-family="Arial" font-size="14.00">shipping_address </text>
<text text-anchor="start" x="163.83" y="-271" font-family="Arial" font-size="14.00" fill="#666666">[varchar(255)]</text>
<polygon fill="none" stroke="black" points="43.2,-228 43.2,-258.8 424.89,-258.8 424.89,-228 43.2,-228"/>
<text text-anchor="start" x="50.2" y="-240.2" font-family="Arial" font-size="14.00">shipping_city </text>
<text text-anchor="start" x="135.03" y="-240.2" font-family="Arial" font-size="14.00" fill="#666666">[varchar(255)]</text>
<polygon fill="none" stroke="black" points="43.2,-197.2 43.2,-228 424.89,-228 424.89,-197.2 43.2,-197.2"/>
<text text-anchor="start" x="50.2" y="-209.4" font-family="Arial" font-size="14.00">shipping_country </text>
<text text-anchor="start" x="159.94" y="-209.4" font-family="Arial" font-size="14.00" fill="#666666">[varchar(255)]</text>
<polygon fill="none" stroke="black" points="43.2,-166.4 43.2,-197.2 424.89,-197.2 424.89,-166.4 43.2,-166.4"/>
<text text-anchor="start" x="50.2" y="-178.6" font-family="Arial" font-size="14.00">shipping_phone </text>
<text text-anchor="start" x="152.96" y="-178.6" font-family="Arial" font-size="14.00" fill="#666666">[varchar(255)]</text>
<polygon fill="none" stroke="black" points="43.2,-135.6 43.2,-166.4 424.89,-166.4 424.89,-135.6 43.2,-135.6"/>
<text text-anchor="start" x="50.2" y="-147.8" font-family="Arial" font-size="14.00">status </text>
<text text-anchor="start" x="91.44" y="-147.8" font-family="Arial" font-size="14.00" fill="#666666">[enum(&#39;pending&#39;,&#39;processing&#39;,&#39;completed&#39;,&#39;cancelled&#39;)]</text>
<polygon fill="none" stroke="black" points="43.2,-104.8 43.2,-135.6 424.89,-135.6 424.89,-104.8 43.2,-104.8"/>
<text text-anchor="start" x="50.2" y="-117" font-family="Arial" font-size="14.00">total_amount </text>
<text text-anchor="start" x="135.03" y="-117" font-family="Arial" font-size="14.00" fill="#666666">[decimal(10,2)]</text>
<polygon fill="none" stroke="black" points="43.2,-74 43.2,-104.8 424.89,-104.8 424.89,-74 43.2,-74"/>
<text text-anchor="start" x="50.2" y="-86.2" font-family="Arial" font-size="14.00">updated_at </text>
<text text-anchor="start" x="124.16" y="-86.2" font-family="Arial" font-size="14.00" fill="#666666">[timestamp]</text>
<polygon fill="none" stroke="black" points="43.2,-43.2 43.2,-74 424.89,-74 424.89,-43.2 43.2,-43.2"/>
<text text-anchor="start" x="50.2" y="-55.4" font-family="Arial" font-size="14.00">user_id </text>
<text text-anchor="start" x="100.01" y="-55.4" font-family="Arial" font-size="14.00" fill="#666666">[bigint unsigned]</text>
</g>
<!-- order_items&#45;&gt;orders -->
<g id="edge1" class="edge">
<title>order_items:order_id&#45;&gt;orders:id</title>
<path fill="none" stroke="black" d="M307.45,-711.81C225.12,-701.99 264.95,-571.6 318.81,-496.8 347.91,-456.4 395.73,-501.15 424.89,-460.8 457.43,-415.77 481.45,-335.8 425.89,-335.8"/>
<polygon fill="black" stroke="black" points="307.5,-711.81 317.22,-716.87 312.82,-712.12 317.15,-712.36 317.15,-712.36 317.15,-712.36 312.82,-712.12 317.74,-707.89 307.5,-711.81"/>
<text text-anchor="start" x="76.87" y="-722.4" font-family="Arial" font-size="10.00">FOREIGN KEY (order_id) REFERENCES orders (id)</text>
</g>
<!-- products -->
<g id="node3" class="node">
<title>products</title>
<polygon fill="#efefef" stroke="none" points="528.81,-382 528.81,-417.6 729.28,-417.6 729.28,-382 528.81,-382"/>
<polygon fill="none" stroke="black" points="528.81,-382 528.81,-417.6 729.28,-417.6 729.28,-382 528.81,-382"/>
<text text-anchor="start" x="535.81" y="-395.4" font-family="Arial Bold" font-size="18.00">products</text>
<text text-anchor="start" x="597.8" y="-395.4" font-family="Arial" font-size="14.00">    </text>
<text text-anchor="start" x="628.91" y="-395.4" font-family="Arial" font-size="14.00" fill="#666666">[BASE TABLE]</text>
<polygon fill="none" stroke="black" points="528.81,-351.2 528.81,-382 729.28,-382 729.28,-351.2 528.81,-351.2"/>
<text text-anchor="start" x="535.81" y="-363.4" font-family="Arial" font-size="14.00">category_id </text>
<text text-anchor="start" x="612.08" y="-363.4" font-family="Arial" font-size="14.00" fill="#666666">[bigint unsigned]</text>
<polygon fill="none" stroke="black" points="528.81,-320.4 528.81,-351.2 729.28,-351.2 729.28,-320.4 528.81,-320.4"/>
<text text-anchor="start" x="535.81" y="-332.6" font-family="Arial" font-size="14.00">created_at </text>
<text text-anchor="start" x="605.85" y="-332.6" font-family="Arial" font-size="14.00" fill="#666666">[timestamp]</text>
<polygon fill="none" stroke="black" points="528.81,-289.6 528.81,-320.4 729.28,-320.4 729.28,-289.6 528.81,-289.6"/>
<text text-anchor="start" x="535.81" y="-301.8" font-family="Arial" font-size="14.00">deleted_at </text>
<text text-anchor="start" x="605.09" y="-301.8" font-family="Arial" font-size="14.00" fill="#666666">[timestamp]</text>
<polygon fill="none" stroke="black" points="528.81,-258.8 528.81,-289.6 729.28,-289.6 729.28,-258.8 528.81,-258.8"/>
<text text-anchor="start" x="535.81" y="-271" font-family="Arial" font-size="14.00">description </text>
<text text-anchor="start" x="607.4" y="-271" font-family="Arial" font-size="14.00" fill="#666666">[text]</text>
<polygon fill="none" stroke="black" points="528.81,-228 528.81,-258.8 729.28,-258.8 729.28,-228 528.81,-228"/>
<text text-anchor="start" x="535.81" y="-240.2" font-family="Arial" font-size="14.00">id </text>
<text text-anchor="start" x="550.59" y="-240.2" font-family="Arial" font-size="14.00" fill="#666666">[bigint unsigned]</text>
<polygon fill="none" stroke="black" points="528.81,-197.2 528.81,-228 729.28,-228 729.28,-197.2 528.81,-197.2"/>
<text text-anchor="start" x="535.81" y="-209.4" font-family="Arial" font-size="14.00">is_active </text>
<text text-anchor="start" x="594.16" y="-209.4" font-family="Arial" font-size="14.00" fill="#666666">[tinyint(1)]</text>
<polygon fill="none" stroke="black" points="528.81,-166.4 528.81,-197.2 729.28,-197.2 729.28,-166.4 528.81,-166.4"/>
<text text-anchor="start" x="535.81" y="-178.6" font-family="Arial" font-size="14.00">name </text>
<text text-anchor="start" x="574.72" y="-178.6" font-family="Arial" font-size="14.00" fill="#666666">[varchar(255)]</text>
<polygon fill="none" stroke="black" points="528.81,-135.6 528.81,-166.4 729.28,-166.4 729.28,-135.6 528.81,-135.6"/>
<text text-anchor="start" x="535.81" y="-147.8" font-family="Arial" font-size="14.00">price </text>
<text text-anchor="start" x="570.04" y="-147.8" font-family="Arial" font-size="14.00" fill="#666666">[decimal(10,2)]</text>
<polygon fill="none" stroke="black" points="528.81,-104.8 528.81,-135.6 729.28,-135.6 729.28,-104.8 528.81,-104.8"/>
<text text-anchor="start" x="535.81" y="-117" font-family="Arial" font-size="14.00">slug </text>
<text text-anchor="start" x="565.38" y="-117" font-family="Arial" font-size="14.00" fill="#666666">[varchar(255)]</text>
<polygon fill="none" stroke="black" points="528.81,-74 528.81,-104.8 729.28,-104.8 729.28,-74 528.81,-74"/>
<text text-anchor="start" x="535.81" y="-86.2" font-family="Arial" font-size="14.00">stock </text>
<text text-anchor="start" x="572.37" y="-86.2" font-family="Arial" font-size="14.00" fill="#666666">[int]</text>
<polygon fill="none" stroke="black" points="528.81,-43.2 528.81,-74 729.28,-74 729.28,-43.2 528.81,-43.2"/>
<text text-anchor="start" x="535.81" y="-55.4" font-family="Arial" font-size="14.00">updated_at </text>
<text text-anchor="start" x="609.76" y="-55.4" font-family="Arial" font-size="14.00" fill="#666666">[timestamp]</text>
</g>
<!-- order_items&#45;&gt;products -->
<g id="edge2" class="edge">
<title>order_items:product_id&#45;&gt;products:id</title>
<path fill="none" stroke="black" d="M554.46,-680.98C620.47,-672.29 558.39,-573.78 543.28,-496.8 539.96,-479.88 532.12,-477.72 528.81,-460.8 510.24,-365.98 431.18,-243.4 527.81,-243.4"/>
<polygon fill="black" stroke="black" points="554.59,-680.97 544.34,-677.09 549.27,-681.3 544.95,-681.56 544.95,-681.56 544.95,-681.56 549.27,-681.3 544.88,-686.07 554.59,-680.97"/>
<text text-anchor="start" x="551.28" y="-691.6" font-family="Arial" font-size="10.00">FOREIGN KEY (product_id) REFERENCES products (id)</text>
</g>
</g>
</svg>
