<?xml version="1.0" encoding="UTF-8" standalone="no"?>
<!DOCTYPE svg PUBLIC "-//W3C//DTD SVG 1.1//EN"
 "http://www.w3.org/Graphics/SVG/1.1/DTD/svg11.dtd">
<!-- Generated by graphviz version 12.1.2 (20240928.0832)
 -->
<!-- Title: payments Pages: 1 -->
<svg width="663pt" height="910pt"
 viewBox="0.00 0.00 662.77 910.00" xmlns="http://www.w3.org/2000/svg" xmlns:xlink="http://www.w3.org/1999/xlink">
<g id="graph0" class="graph" transform="scale(1 1) rotate(0) translate(4 906)">
<title>payments</title>
<polygon fill="white" stroke="none" points="-4,4 -4,-906 658.77,-906 658.77,4 -4,4"/>
<!-- payments -->
<g id="node1" class="node">
<title>payments</title>
<polygon fill="#efefef" stroke="none" points="62.26,-820.2 62.26,-855.8 405.83,-855.8 405.83,-820.2 62.26,-820.2"/>
<polygon fill="none" stroke="black" points="62.26,-820.2 62.26,-855.8 405.83,-855.8 405.83,-820.2 62.26,-820.2"/>
<text text-anchor="start" x="137.31" y="-833.6" font-family="Arial Bold" font-size="18.00">payments</text>
<text text-anchor="start" x="206.29" y="-833.6" font-family="Arial" font-size="14.00">    </text>
<text text-anchor="start" x="237.41" y="-833.6" font-family="Arial" font-size="14.00" fill="#666666">[BASE TABLE]</text>
<polygon fill="none" stroke="black" points="62.26,-789.4 62.26,-820.2 405.83,-820.2 405.83,-789.4 62.26,-789.4"/>
<text text-anchor="start" x="69.26" y="-801.6" font-family="Arial" font-size="14.00">amount </text>
<text text-anchor="start" x="119.84" y="-801.6" font-family="Arial" font-size="14.00" fill="#666666">[decimal(10,2)]</text>
<polygon fill="none" stroke="black" points="62.26,-758.6 62.26,-789.4 405.83,-789.4 405.83,-758.6 62.26,-758.6"/>
<text text-anchor="start" x="69.26" y="-770.8" font-family="Arial" font-size="14.00">created_at </text>
<text text-anchor="start" x="139.31" y="-770.8" font-family="Arial" font-size="14.00" fill="#666666">[timestamp]</text>
<polygon fill="none" stroke="black" points="62.26,-727.8 62.26,-758.6 405.83,-758.6 405.83,-727.8 62.26,-727.8"/>
<text text-anchor="start" x="69.26" y="-740" font-family="Arial" font-size="14.00">id </text>
<text text-anchor="start" x="84.04" y="-740" font-family="Arial" font-size="14.00" fill="#666666">[bigint unsigned]</text>
<polygon fill="none" stroke="black" points="62.26,-697 62.26,-727.8 405.83,-727.8 405.83,-697 62.26,-697"/>
<text text-anchor="start" x="69.26" y="-709.2" font-family="Arial" font-size="14.00">order_id </text>
<text text-anchor="start" x="124.51" y="-709.2" font-family="Arial" font-size="14.00" fill="#666666">[bigint unsigned]</text>
<polygon fill="none" stroke="black" points="62.26,-666.2 62.26,-697 405.83,-697 405.83,-666.2 62.26,-666.2"/>
<text text-anchor="start" x="69.26" y="-678.4" font-family="Arial" font-size="14.00">paid_at </text>
<text text-anchor="start" x="119.08" y="-678.4" font-family="Arial" font-size="14.00" fill="#666666">[timestamp]</text>
<polygon fill="none" stroke="black" points="62.26,-635.4 62.26,-666.2 405.83,-666.2 405.83,-635.4 62.26,-635.4"/>
<text text-anchor="start" x="69.26" y="-647.6" font-family="Arial" font-size="14.00">payment_method </text>
<text text-anchor="start" x="181.33" y="-647.6" font-family="Arial" font-size="14.00" fill="#666666">[varchar(255)]</text>
<polygon fill="none" stroke="black" points="62.26,-604.6 62.26,-635.4 405.83,-635.4 405.83,-604.6 62.26,-604.6"/>
<text text-anchor="start" x="69.26" y="-616.8" font-family="Arial" font-size="14.00">status </text>
<text text-anchor="start" x="110.5" y="-616.8" font-family="Arial" font-size="14.00" fill="#666666">[enum(&#39;pending&#39;,&#39;completed&#39;,&#39;failed&#39;,&#39;refunded&#39;)]</text>
<polygon fill="none" stroke="black" points="62.26,-573.8 62.26,-604.6 405.83,-604.6 405.83,-573.8 62.26,-573.8"/>
<text text-anchor="start" x="69.26" y="-586" font-family="Arial" font-size="14.00">transaction_id </text>
<text text-anchor="start" x="160.31" y="-586" font-family="Arial" font-size="14.00" fill="#666666">[varchar(255)]</text>
<polygon fill="none" stroke="black" points="62.26,-543 62.26,-573.8 405.83,-573.8 405.83,-543 62.26,-543"/>
<text text-anchor="start" x="69.26" y="-555.2" font-family="Arial" font-size="14.00">updated_at </text>
<text text-anchor="start" x="143.22" y="-555.2" font-family="Arial" font-size="14.00" fill="#666666">[timestamp]</text>
<polygon fill="none" stroke="black" stroke-width="3" points="60.76,-541.5 60.76,-857.3 407.33,-857.3 407.33,-541.5 60.76,-541.5"/>
</g>
<!-- orders -->
<g id="node2" class="node">
<title>orders</title>
<polygon fill="#efefef" stroke="none" points="43.2,-382 43.2,-417.6 424.89,-417.6 424.89,-382 43.2,-382"/>
<polygon fill="none" stroke="black" points="43.2,-382 43.2,-417.6 424.89,-417.6 424.89,-382 43.2,-382"/>
<text text-anchor="start" x="149.31" y="-395.4" font-family="Arial Bold" font-size="18.00">orders</text>
<text text-anchor="start" x="194.29" y="-395.4" font-family="Arial" font-size="14.00">    </text>
<text text-anchor="start" x="225.41" y="-395.4" font-family="Arial" font-size="14.00" fill="#666666">[BASE TABLE]</text>
<polygon fill="none" stroke="black" points="43.2,-351.2 43.2,-382 424.89,-382 424.89,-351.2 43.2,-351.2"/>
<text text-anchor="start" x="50.2" y="-363.4" font-family="Arial" font-size="14.00">created_at </text>
<text text-anchor="start" x="120.25" y="-363.4" font-family="Arial" font-size="14.00" fill="#666666">[timestamp]</text>
<polygon fill="none" stroke="black" points="43.2,-320.4 43.2,-351.2 424.89,-351.2 424.89,-320.4 43.2,-320.4"/>
<text text-anchor="start" x="50.2" y="-332.6" font-family="Arial" font-size="14.00">id </text>
<text text-anchor="start" x="64.99" y="-332.6" font-family="Arial" font-size="14.00" fill="#666666">[bigint unsigned]</text>
<polygon fill="none" stroke="black" points="43.2,-289.6 43.2,-320.4 424.89,-320.4 424.89,-289.6 43.2,-289.6"/>
<text text-anchor="start" x="50.2" y="-301.8" font-family="Arial" font-size="14.00">order_number </text>
<text text-anchor="start" x="142.03" y="-301.8" font-family="Arial" font-size="14.00" fill="#666666">[varchar(255)]</text>
<polygon fill="none" stroke="black" points="43.2,-258.8 43.2,-289.6 424.89,-289.6 424.89,-258.8 43.2,-258.8"/>
<text text-anchor="start" x="50.2" y="-271" font-family="Arial" font-size="14.00">shipping_address </text>
<text text-anchor="start" x="163.83" y="-271" font-family="Arial" font-size="14.00" fill="#666666">[varchar(255)]</text>
<polygon fill="none" stroke="black" points="43.2,-228 43.2,-258.8 424.89,-258.8 424.89,-228 43.2,-228"/>
<text text-anchor="start" x="50.2" y="-240.2" font-family="Arial" font-size="14.00">shipping_city </text>
<text text-anchor="start" x="135.03" y="-240.2" font-family="Arial" font-size="14.00" fill="#666666">[varchar(255)]</text>
<polygon fill="none" stroke="black" points="43.2,-197.2 43.2,-228 424.89,-228 424.89,-197.2 43.2,-197.2"/>
<text text-anchor="start" x="50.2" y="-209.4" font-family="Arial" font-size="14.00">shipping_country </text>
<text text-anchor="start" x="159.94" y="-209.4" font-family="Arial" font-size="14.00" fill="#666666">[varchar(255)]</text>
<polygon fill="none" stroke="black" points="43.2,-166.4 43.2,-197.2 424.89,-197.2 424.89,-166.4 43.2,-166.4"/>
<text text-anchor="start" x="50.2" y="-178.6" font-family="Arial" font-size="14.00">shipping_phone </text>
<text text-anchor="start" x="152.96" y="-178.6" font-family="Arial" font-size="14.00" fill="#666666">[varchar(255)]</text>
<polygon fill="none" stroke="black" points="43.2,-135.6 43.2,-166.4 424.89,-166.4 424.89,-135.6 43.2,-135.6"/>
<text text-anchor="start" x="50.2" y="-147.8" font-family="Arial" font-size="14.00">status </text>
<text text-anchor="start" x="91.44" y="-147.8" font-family="Arial" font-size="14.00" fill="#666666">[enum(&#39;pending&#39;,&#39;processing&#39;,&#39;completed&#39;,&#39;cancelled&#39;)]</text>
<polygon fill="none" stroke="black" points="43.2,-104.8 43.2,-135.6 424.89,-135.6 424.89,-104.8 43.2,-104.8"/>
<text text-anchor="start" x="50.2" y="-117" font-family="Arial" font-size="14.00">total_amount </text>
<text text-anchor="start" x="135.03" y="-117" font-family="Arial" font-size="14.00" fill="#666666">[decimal(10,2)]</text>
<polygon fill="none" stroke="black" points="43.2,-74 43.2,-104.8 424.89,-104.8 424.89,-74 43.2,-74"/>
<text text-anchor="start" x="50.2" y="-86.2" font-family="Arial" font-size="14.00">updated_at </text>
<text text-anchor="start" x="124.16" y="-86.2" font-family="Arial" font-size="14.00" fill="#666666">[timestamp]</text>
<polygon fill="none" stroke="black" points="43.2,-43.2 43.2,-74 424.89,-74 424.89,-43.2 43.2,-43.2"/>
<text text-anchor="start" x="50.2" y="-55.4" font-family="Arial" font-size="14.00">user_id </text>
<text text-anchor="start" x="100.01" y="-55.4" font-family="Arial" font-size="14.00" fill="#666666">[bigint unsigned]</text>
</g>
<!-- payments&#45;&gt;orders -->
<g id="edge1" class="edge">
<title>payments:order_id&#45;&gt;orders:id</title>
<path fill="none" stroke="black" d="M416.81,-710.55C492.02,-682.14 506.25,-335.8 425.89,-335.8"/>
<polygon fill="black" stroke="black" points="416.99,-710.52 406.34,-707.91 411.75,-711.49 407.49,-712.28 407.49,-712.28 407.49,-712.28 411.75,-711.49 407.98,-716.76 416.99,-710.52"/>
<text text-anchor="start" x="413.83" y="-722.4" font-family="Arial" font-size="10.00">FOREIGN KEY (order_id) REFERENCES orders (id)</text>
</g>
</g>
</svg>
