<?xml version="1.0" encoding="UTF-8" standalone="no"?>
<!DOCTYPE svg PUBLIC "-//W3C//DTD SVG 1.1//EN"
 "http://www.w3.org/Graphics/SVG/1.1/DTD/svg11.dtd">
<!-- Generated by graphviz version 12.1.2 (20240928.0832)
 -->
<!-- Title: products Pages: 1 -->
<svg width="545pt" height="1314pt"
 viewBox="0.00 0.00 545.41 1314.40" xmlns="http://www.w3.org/2000/svg" xmlns:xlink="http://www.w3.org/1999/xlink">
<g id="graph0" class="graph" transform="scale(1 1) rotate(0) translate(4 1310.4)">
<title>products</title>
<polygon fill="white" stroke="none" points="-4,4 -4,-1310.4 541.41,-1310.4 541.41,4 -4,4"/>
<!-- products -->
<g id="node1" class="node">
<title>products</title>
<polygon fill="#efefef" stroke="none" points="55.19,-820.2 55.19,-855.8 255.67,-855.8 255.67,-820.2 55.19,-820.2"/>
<polygon fill="none" stroke="black" points="55.19,-820.2 55.19,-855.8 255.67,-855.8 255.67,-820.2 55.19,-820.2"/>
<text text-anchor="start" x="62.19" y="-833.6" font-family="Arial Bold" font-size="18.00">products</text>
<text text-anchor="start" x="124.18" y="-833.6" font-family="Arial" font-size="14.00">    </text>
<text text-anchor="start" x="155.3" y="-833.6" font-family="Arial" font-size="14.00" fill="#666666">[BASE TABLE]</text>
<polygon fill="none" stroke="black" points="55.19,-789.4 55.19,-820.2 255.67,-820.2 255.67,-789.4 55.19,-789.4"/>
<text text-anchor="start" x="62.19" y="-801.6" font-family="Arial" font-size="14.00">category_id </text>
<text text-anchor="start" x="138.46" y="-801.6" font-family="Arial" font-size="14.00" fill="#666666">[bigint unsigned]</text>
<polygon fill="none" stroke="black" points="55.19,-758.6 55.19,-789.4 255.67,-789.4 255.67,-758.6 55.19,-758.6"/>
<text text-anchor="start" x="62.19" y="-770.8" font-family="Arial" font-size="14.00">created_at </text>
<text text-anchor="start" x="132.24" y="-770.8" font-family="Arial" font-size="14.00" fill="#666666">[timestamp]</text>
<polygon fill="none" stroke="black" points="55.19,-727.8 55.19,-758.6 255.67,-758.6 255.67,-727.8 55.19,-727.8"/>
<text text-anchor="start" x="62.19" y="-740" font-family="Arial" font-size="14.00">deleted_at </text>
<text text-anchor="start" x="131.47" y="-740" font-family="Arial" font-size="14.00" fill="#666666">[timestamp]</text>
<polygon fill="none" stroke="black" points="55.19,-697 55.19,-727.8 255.67,-727.8 255.67,-697 55.19,-697"/>
<text text-anchor="start" x="62.19" y="-709.2" font-family="Arial" font-size="14.00">description </text>
<text text-anchor="start" x="133.79" y="-709.2" font-family="Arial" font-size="14.00" fill="#666666">[text]</text>
<polygon fill="none" stroke="black" points="55.19,-666.2 55.19,-697 255.67,-697 255.67,-666.2 55.19,-666.2"/>
<text text-anchor="start" x="62.19" y="-678.4" font-family="Arial" font-size="14.00">id </text>
<text text-anchor="start" x="76.98" y="-678.4" font-family="Arial" font-size="14.00" fill="#666666">[bigint unsigned]</text>
<polygon fill="none" stroke="black" points="55.19,-635.4 55.19,-666.2 255.67,-666.2 255.67,-635.4 55.19,-635.4"/>
<text text-anchor="start" x="62.19" y="-647.6" font-family="Arial" font-size="14.00">is_active </text>
<text text-anchor="start" x="120.55" y="-647.6" font-family="Arial" font-size="14.00" fill="#666666">[tinyint(1)]</text>
<polygon fill="none" stroke="black" points="55.19,-604.6 55.19,-635.4 255.67,-635.4 255.67,-604.6 55.19,-604.6"/>
<text text-anchor="start" x="62.19" y="-616.8" font-family="Arial" font-size="14.00">name </text>
<text text-anchor="start" x="101.1" y="-616.8" font-family="Arial" font-size="14.00" fill="#666666">[varchar(255)]</text>
<polygon fill="none" stroke="black" points="55.19,-573.8 55.19,-604.6 255.67,-604.6 255.67,-573.8 55.19,-573.8"/>
<text text-anchor="start" x="62.19" y="-586" font-family="Arial" font-size="14.00">price </text>
<text text-anchor="start" x="96.43" y="-586" font-family="Arial" font-size="14.00" fill="#666666">[decimal(10,2)]</text>
<polygon fill="none" stroke="black" points="55.19,-543 55.19,-573.8 255.67,-573.8 255.67,-543 55.19,-543"/>
<text text-anchor="start" x="62.19" y="-555.2" font-family="Arial" font-size="14.00">slug </text>
<text text-anchor="start" x="91.76" y="-555.2" font-family="Arial" font-size="14.00" fill="#666666">[varchar(255)]</text>
<polygon fill="none" stroke="black" points="55.19,-512.2 55.19,-543 255.67,-543 255.67,-512.2 55.19,-512.2"/>
<text text-anchor="start" x="62.19" y="-524.4" font-family="Arial" font-size="14.00">stock </text>
<text text-anchor="start" x="98.76" y="-524.4" font-family="Arial" font-size="14.00" fill="#666666">[int]</text>
<polygon fill="none" stroke="black" points="55.19,-481.4 55.19,-512.2 255.67,-512.2 255.67,-481.4 55.19,-481.4"/>
<text text-anchor="start" x="62.19" y="-493.6" font-family="Arial" font-size="14.00">updated_at </text>
<text text-anchor="start" x="136.15" y="-493.6" font-family="Arial" font-size="14.00" fill="#666666">[timestamp]</text>
<polygon fill="none" stroke="black" stroke-width="3" points="53.69,-479.9 53.69,-857.3 257.17,-857.3 257.17,-479.9 53.69,-479.9"/>
</g>
<!-- categories -->
<g id="node2" class="node">
<title>categories</title>
<polygon fill="#efefef" stroke="none" points="49.71,-320.4 49.71,-356 261.16,-356 261.16,-320.4 49.71,-320.4"/>
<polygon fill="none" stroke="black" points="49.71,-320.4 49.71,-356 261.16,-356 261.16,-320.4 49.71,-320.4"/>
<text text-anchor="start" x="56.71" y="-333.8" font-family="Arial Bold" font-size="18.00">categories</text>
<text text-anchor="start" x="129.67" y="-333.8" font-family="Arial" font-size="14.00">    </text>
<text text-anchor="start" x="160.78" y="-333.8" font-family="Arial" font-size="14.00" fill="#666666">[BASE TABLE]</text>
<polygon fill="none" stroke="black" points="49.71,-289.6 49.71,-320.4 261.16,-320.4 261.16,-289.6 49.71,-289.6"/>
<text text-anchor="start" x="56.71" y="-301.8" font-family="Arial" font-size="14.00">created_at </text>
<text text-anchor="start" x="126.76" y="-301.8" font-family="Arial" font-size="14.00" fill="#666666">[timestamp]</text>
<polygon fill="none" stroke="black" points="49.71,-258.8 49.71,-289.6 261.16,-289.6 261.16,-258.8 49.71,-258.8"/>
<text text-anchor="start" x="56.71" y="-271" font-family="Arial" font-size="14.00">description </text>
<text text-anchor="start" x="128.3" y="-271" font-family="Arial" font-size="14.00" fill="#666666">[text]</text>
<polygon fill="none" stroke="black" points="49.71,-228 49.71,-258.8 261.16,-258.8 261.16,-228 49.71,-228"/>
<text text-anchor="start" x="56.71" y="-240.2" font-family="Arial" font-size="14.00">id </text>
<text text-anchor="start" x="71.49" y="-240.2" font-family="Arial" font-size="14.00" fill="#666666">[bigint unsigned]</text>
<polygon fill="none" stroke="black" points="49.71,-197.2 49.71,-228 261.16,-228 261.16,-197.2 49.71,-197.2"/>
<text text-anchor="start" x="56.71" y="-209.4" font-family="Arial" font-size="14.00">is_active </text>
<text text-anchor="start" x="115.07" y="-209.4" font-family="Arial" font-size="14.00" fill="#666666">[tinyint(1)]</text>
<polygon fill="none" stroke="black" points="49.71,-166.4 49.71,-197.2 261.16,-197.2 261.16,-166.4 49.71,-166.4"/>
<text text-anchor="start" x="56.71" y="-178.6" font-family="Arial" font-size="14.00">name </text>
<text text-anchor="start" x="95.62" y="-178.6" font-family="Arial" font-size="14.00" fill="#666666">[varchar(255)]</text>
<polygon fill="none" stroke="black" points="49.71,-135.6 49.71,-166.4 261.16,-166.4 261.16,-135.6 49.71,-135.6"/>
<text text-anchor="start" x="56.71" y="-147.8" font-family="Arial" font-size="14.00">parent_id </text>
<text text-anchor="start" x="118.98" y="-147.8" font-family="Arial" font-size="14.00" fill="#666666">[bigint unsigned]</text>
<polygon fill="none" stroke="black" points="49.71,-104.8 49.71,-135.6 261.16,-135.6 261.16,-104.8 49.71,-104.8"/>
<text text-anchor="start" x="56.71" y="-117" font-family="Arial" font-size="14.00">slug </text>
<text text-anchor="start" x="86.28" y="-117" font-family="Arial" font-size="14.00" fill="#666666">[varchar(255)]</text>
<polygon fill="none" stroke="black" points="49.71,-74 49.71,-104.8 261.16,-104.8 261.16,-74 49.71,-74"/>
<text text-anchor="start" x="56.71" y="-86.2" font-family="Arial" font-size="14.00">sort_order </text>
<text text-anchor="start" x="124.4" y="-86.2" font-family="Arial" font-size="14.00" fill="#666666">[int]</text>
<polygon fill="none" stroke="black" points="49.71,-43.2 49.71,-74 261.16,-74 261.16,-43.2 49.71,-43.2"/>
<text text-anchor="start" x="56.71" y="-55.4" font-family="Arial" font-size="14.00">updated_at </text>
<text text-anchor="start" x="130.67" y="-55.4" font-family="Arial" font-size="14.00" fill="#666666">[timestamp]</text>
</g>
<!-- products&#45;&gt;categories -->
<g id="edge1" class="edge">
<title>products:category_id&#45;&gt;categories:id</title>
<path fill="none" stroke="black" d="M266.98,-803.47C381.64,-773.45 383.38,-243.4 262.16,-243.4"/>
<polygon fill="black" stroke="black" points="266.92,-803.48 256.43,-800.29 261.63,-804.16 257.33,-804.71 257.33,-804.71 257.33,-804.71 261.63,-804.16 257.58,-809.22 266.92,-803.48"/>
<text text-anchor="start" x="263.67" y="-814.8" font-family="Arial" font-size="10.00">FOREIGN KEY (category_id) REFERENCES categories (id)</text>
</g>
<!-- order_items -->
<g id="node3" class="node">
<title>order_items</title>
<polygon fill="#efefef" stroke="none" points="43.2,-1227.6 43.2,-1263.2 267.66,-1263.2 267.66,-1227.6 43.2,-1227.6"/>
<polygon fill="none" stroke="black" points="43.2,-1227.6 43.2,-1263.2 267.66,-1263.2 267.66,-1227.6 43.2,-1227.6"/>
<text text-anchor="start" x="50.2" y="-1241" font-family="Arial Bold" font-size="18.00">order_items</text>
<text text-anchor="start" x="136.17" y="-1241" font-family="Arial" font-size="14.00">    </text>
<text text-anchor="start" x="167.29" y="-1241" font-family="Arial" font-size="14.00" fill="#666666">[BASE TABLE]</text>
<polygon fill="none" stroke="black" points="43.2,-1196.8 43.2,-1227.6 267.66,-1227.6 267.66,-1196.8 43.2,-1196.8"/>
<text text-anchor="start" x="50.2" y="-1209" font-family="Arial" font-size="14.00">created_at </text>
<text text-anchor="start" x="120.25" y="-1209" font-family="Arial" font-size="14.00" fill="#666666">[timestamp]</text>
<polygon fill="none" stroke="black" points="43.2,-1166 43.2,-1196.8 267.66,-1196.8 267.66,-1166 43.2,-1166"/>
<text text-anchor="start" x="50.2" y="-1178.2" font-family="Arial" font-size="14.00">id </text>
<text text-anchor="start" x="64.99" y="-1178.2" font-family="Arial" font-size="14.00" fill="#666666">[bigint unsigned]</text>
<polygon fill="none" stroke="black" points="43.2,-1135.2 43.2,-1166 267.66,-1166 267.66,-1135.2 43.2,-1135.2"/>
<text text-anchor="start" x="50.2" y="-1147.4" font-family="Arial" font-size="14.00">order_id </text>
<text text-anchor="start" x="105.45" y="-1147.4" font-family="Arial" font-size="14.00" fill="#666666">[bigint unsigned]</text>
<polygon fill="none" stroke="black" points="43.2,-1104.4 43.2,-1135.2 267.66,-1135.2 267.66,-1104.4 43.2,-1104.4"/>
<text text-anchor="start" x="50.2" y="-1116.6" font-family="Arial" font-size="14.00">product_id </text>
<text text-anchor="start" x="119.47" y="-1116.6" font-family="Arial" font-size="14.00" fill="#666666">[bigint unsigned]</text>
<polygon fill="none" stroke="black" points="43.2,-1073.6 43.2,-1104.4 267.66,-1104.4 267.66,-1073.6 43.2,-1073.6"/>
<text text-anchor="start" x="50.2" y="-1085.8" font-family="Arial" font-size="14.00">quantity </text>
<text text-anchor="start" x="103.12" y="-1085.8" font-family="Arial" font-size="14.00" fill="#666666">[int]</text>
<polygon fill="none" stroke="black" points="43.2,-1042.8 43.2,-1073.6 267.66,-1073.6 267.66,-1042.8 43.2,-1042.8"/>
<text text-anchor="start" x="50.2" y="-1055" font-family="Arial" font-size="14.00">subtotal </text>
<text text-anchor="start" x="103.12" y="-1055" font-family="Arial" font-size="14.00" fill="#666666">[decimal(10,2)]</text>
<polygon fill="none" stroke="black" points="43.2,-1012 43.2,-1042.8 267.66,-1042.8 267.66,-1012 43.2,-1012"/>
<text text-anchor="start" x="50.2" y="-1024.2" font-family="Arial" font-size="14.00">unit_price </text>
<text text-anchor="start" x="114.79" y="-1024.2" font-family="Arial" font-size="14.00" fill="#666666">[decimal(10,2)]</text>
<polygon fill="none" stroke="black" points="43.2,-981.2 43.2,-1012 267.66,-1012 267.66,-981.2 43.2,-981.2"/>
<text text-anchor="start" x="50.2" y="-993.4" font-family="Arial" font-size="14.00">updated_at </text>
<text text-anchor="start" x="124.16" y="-993.4" font-family="Arial" font-size="14.00" fill="#666666">[timestamp]</text>
</g>
<!-- order_items&#45;&gt;products -->
<g id="edge2" class="edge">
<title>order_items:product_id&#45;&gt;products:id</title>
<path fill="none" stroke="black" d="M278.8,-1118.13C365.1,-1088.71 350.57,-681.6 256.67,-681.6"/>
<polygon fill="black" stroke="black" points="278.86,-1118.11 268.26,-1115.31 273.6,-1118.98 269.32,-1119.69 269.32,-1119.69 269.32,-1119.69 273.6,-1118.98 269.73,-1124.19 278.86,-1118.11"/>
<text text-anchor="start" x="275.66" y="-1129.8" font-family="Arial" font-size="10.00">FOREIGN KEY (product_id) REFERENCES products (id)</text>
</g>
</g>
</svg>
