<?xml version="1.0" encoding="UTF-8" standalone="no"?>
<!DOCTYPE svg PUBLIC "-//W3C//DTD SVG 1.1//EN"
 "http://www.w3.org/Graphics/SVG/1.1/DTD/svg11.dtd">
<!-- Generated by graphviz version 12.1.2 (20240928.0832)
 -->
<!-- Title: laravel_test Pages: 1 -->
<svg width="1025pt" height="1339pt"
 viewBox="0.00 0.00 1025.14 1339.20" xmlns="http://www.w3.org/2000/svg" xmlns:xlink="http://www.w3.org/1999/xlink">
<g id="graph0" class="graph" transform="scale(1 1) rotate(0) translate(4 1335.2)">
<title>laravel_test</title>
<polygon fill="white" stroke="none" points="-4,4 -4,-1335.2 1021.14,-1335.2 1021.14,4 -4,4"/>
<!-- categories -->
<g id="node1" class="node">
<title>categories</title>
<polygon fill="#efefef" stroke="none" points="529.43,-320.4 529.43,-356 740.88,-356 740.88,-320.4 529.43,-320.4"/>
<polygon fill="none" stroke="black" points="529.43,-320.4 529.43,-356 740.88,-356 740.88,-320.4 529.43,-320.4"/>
<text text-anchor="start" x="536.43" y="-333.8" font-family="Arial Bold" font-size="18.00">categories</text>
<text text-anchor="start" x="609.39" y="-333.8" font-family="Arial" font-size="14.00">    </text>
<text text-anchor="start" x="640.51" y="-333.8" font-family="Arial" font-size="14.00" fill="#666666">[BASE TABLE]</text>
<polygon fill="none" stroke="black" points="529.43,-289.6 529.43,-320.4 740.88,-320.4 740.88,-289.6 529.43,-289.6"/>
<text text-anchor="start" x="536.43" y="-301.8" font-family="Arial" font-size="14.00">created_at </text>
<text text-anchor="start" x="606.48" y="-301.8" font-family="Arial" font-size="14.00" fill="#666666">[timestamp]</text>
<polygon fill="none" stroke="black" points="529.43,-258.8 529.43,-289.6 740.88,-289.6 740.88,-258.8 529.43,-258.8"/>
<text text-anchor="start" x="536.43" y="-271" font-family="Arial" font-size="14.00">description </text>
<text text-anchor="start" x="608.03" y="-271" font-family="Arial" font-size="14.00" fill="#666666">[text]</text>
<polygon fill="none" stroke="black" points="529.43,-228 529.43,-258.8 740.88,-258.8 740.88,-228 529.43,-228"/>
<text text-anchor="start" x="536.43" y="-240.2" font-family="Arial" font-size="14.00">id </text>
<text text-anchor="start" x="551.22" y="-240.2" font-family="Arial" font-size="14.00" fill="#666666">[bigint unsigned]</text>
<polygon fill="none" stroke="black" points="529.43,-197.2 529.43,-228 740.88,-228 740.88,-197.2 529.43,-197.2"/>
<text text-anchor="start" x="536.43" y="-209.4" font-family="Arial" font-size="14.00">is_active </text>
<text text-anchor="start" x="594.79" y="-209.4" font-family="Arial" font-size="14.00" fill="#666666">[tinyint(1)]</text>
<polygon fill="none" stroke="black" points="529.43,-166.4 529.43,-197.2 740.88,-197.2 740.88,-166.4 529.43,-166.4"/>
<text text-anchor="start" x="536.43" y="-178.6" font-family="Arial" font-size="14.00">name </text>
<text text-anchor="start" x="575.34" y="-178.6" font-family="Arial" font-size="14.00" fill="#666666">[varchar(255)]</text>
<polygon fill="none" stroke="black" points="529.43,-135.6 529.43,-166.4 740.88,-166.4 740.88,-135.6 529.43,-135.6"/>
<text text-anchor="start" x="536.43" y="-147.8" font-family="Arial" font-size="14.00">parent_id </text>
<text text-anchor="start" x="598.7" y="-147.8" font-family="Arial" font-size="14.00" fill="#666666">[bigint unsigned]</text>
<polygon fill="none" stroke="black" points="529.43,-104.8 529.43,-135.6 740.88,-135.6 740.88,-104.8 529.43,-104.8"/>
<text text-anchor="start" x="536.43" y="-117" font-family="Arial" font-size="14.00">slug </text>
<text text-anchor="start" x="566.01" y="-117" font-family="Arial" font-size="14.00" fill="#666666">[varchar(255)]</text>
<polygon fill="none" stroke="black" points="529.43,-74 529.43,-104.8 740.88,-104.8 740.88,-74 529.43,-74"/>
<text text-anchor="start" x="536.43" y="-86.2" font-family="Arial" font-size="14.00">sort_order </text>
<text text-anchor="start" x="604.13" y="-86.2" font-family="Arial" font-size="14.00" fill="#666666">[int]</text>
<polygon fill="none" stroke="black" points="529.43,-43.2 529.43,-74 740.88,-74 740.88,-43.2 529.43,-43.2"/>
<text text-anchor="start" x="536.43" y="-55.4" font-family="Arial" font-size="14.00">updated_at </text>
<text text-anchor="start" x="610.39" y="-55.4" font-family="Arial" font-size="14.00" fill="#666666">[timestamp]</text>
</g>
<!-- categories&#45;&gt;categories -->
<g id="edge1" class="edge">
<title>categories:parent_id&#45;&gt;categories:id</title>
<path fill="none" stroke="black" d="M636.54,-175.95C644.13,-330.6 643.67,-632.2 635.16,-632.2 626.46,-632.2 626.17,-404.03 634.27,-258.52"/>
<polygon fill="black" stroke="black" points="636.55,-176.3 640.54,-166.09 636.28,-170.98 636.06,-166.65 636.06,-166.65 636.06,-166.65 636.28,-170.98 631.55,-166.55 636.55,-176.3"/>
<text text-anchor="start" x="643.02" y="-175.98" font-family="Arial" font-size="10.00">FOREIGN KEY (parent_id) REFERENCES categories (id)</text>
</g>
<!-- order_items -->
<g id="node2" class="node">
<title>order_items</title>
<polygon fill="#efefef" stroke="none" points="518.93,-1237 518.93,-1272.6 743.39,-1272.6 743.39,-1237 518.93,-1237"/>
<polygon fill="none" stroke="black" points="518.93,-1237 518.93,-1272.6 743.39,-1272.6 743.39,-1237 518.93,-1237"/>
<text text-anchor="start" x="525.93" y="-1250.4" font-family="Arial Bold" font-size="18.00">order_items</text>
<text text-anchor="start" x="611.9" y="-1250.4" font-family="Arial" font-size="14.00">    </text>
<text text-anchor="start" x="643.02" y="-1250.4" font-family="Arial" font-size="14.00" fill="#666666">[BASE TABLE]</text>
<polygon fill="none" stroke="black" points="518.93,-1206.2 518.93,-1237 743.39,-1237 743.39,-1206.2 518.93,-1206.2"/>
<text text-anchor="start" x="525.93" y="-1218.4" font-family="Arial" font-size="14.00">created_at </text>
<text text-anchor="start" x="595.97" y="-1218.4" font-family="Arial" font-size="14.00" fill="#666666">[timestamp]</text>
<polygon fill="none" stroke="black" points="518.93,-1175.4 518.93,-1206.2 743.39,-1206.2 743.39,-1175.4 518.93,-1175.4"/>
<text text-anchor="start" x="525.93" y="-1187.6" font-family="Arial" font-size="14.00">id </text>
<text text-anchor="start" x="540.71" y="-1187.6" font-family="Arial" font-size="14.00" fill="#666666">[bigint unsigned]</text>
<polygon fill="none" stroke="black" points="518.93,-1144.6 518.93,-1175.4 743.39,-1175.4 743.39,-1144.6 518.93,-1144.6"/>
<text text-anchor="start" x="525.93" y="-1156.8" font-family="Arial" font-size="14.00">order_id </text>
<text text-anchor="start" x="581.18" y="-1156.8" font-family="Arial" font-size="14.00" fill="#666666">[bigint unsigned]</text>
<polygon fill="none" stroke="black" points="518.93,-1113.8 518.93,-1144.6 743.39,-1144.6 743.39,-1113.8 518.93,-1113.8"/>
<text text-anchor="start" x="525.93" y="-1126" font-family="Arial" font-size="14.00">product_id </text>
<text text-anchor="start" x="595.19" y="-1126" font-family="Arial" font-size="14.00" fill="#666666">[bigint unsigned]</text>
<polygon fill="none" stroke="black" points="518.93,-1083 518.93,-1113.8 743.39,-1113.8 743.39,-1083 518.93,-1083"/>
<text text-anchor="start" x="525.93" y="-1095.2" font-family="Arial" font-size="14.00">quantity </text>
<text text-anchor="start" x="578.85" y="-1095.2" font-family="Arial" font-size="14.00" fill="#666666">[int]</text>
<polygon fill="none" stroke="black" points="518.93,-1052.2 518.93,-1083 743.39,-1083 743.39,-1052.2 518.93,-1052.2"/>
<text text-anchor="start" x="525.93" y="-1064.4" font-family="Arial" font-size="14.00">subtotal </text>
<text text-anchor="start" x="578.85" y="-1064.4" font-family="Arial" font-size="14.00" fill="#666666">[decimal(10,2)]</text>
<polygon fill="none" stroke="black" points="518.93,-1021.4 518.93,-1052.2 743.39,-1052.2 743.39,-1021.4 518.93,-1021.4"/>
<text text-anchor="start" x="525.93" y="-1033.6" font-family="Arial" font-size="14.00">unit_price </text>
<text text-anchor="start" x="590.52" y="-1033.6" font-family="Arial" font-size="14.00" fill="#666666">[decimal(10,2)]</text>
<polygon fill="none" stroke="black" points="518.93,-990.6 518.93,-1021.4 743.39,-1021.4 743.39,-990.6 518.93,-990.6"/>
<text text-anchor="start" x="525.93" y="-1002.8" font-family="Arial" font-size="14.00">updated_at </text>
<text text-anchor="start" x="599.88" y="-1002.8" font-family="Arial" font-size="14.00" fill="#666666">[timestamp]</text>
</g>
<!-- orders -->
<g id="node3" class="node">
<title>orders</title>
<polygon fill="#efefef" stroke="none" points="49.31,-817.2 49.31,-852.8 431,-852.8 431,-817.2 49.31,-817.2"/>
<polygon fill="none" stroke="black" points="49.31,-817.2 49.31,-852.8 431,-852.8 431,-817.2 49.31,-817.2"/>
<text text-anchor="start" x="155.42" y="-830.6" font-family="Arial Bold" font-size="18.00">orders</text>
<text text-anchor="start" x="200.4" y="-830.6" font-family="Arial" font-size="14.00">    </text>
<text text-anchor="start" x="231.52" y="-830.6" font-family="Arial" font-size="14.00" fill="#666666">[BASE TABLE]</text>
<polygon fill="none" stroke="black" points="49.31,-786.4 49.31,-817.2 431,-817.2 431,-786.4 49.31,-786.4"/>
<text text-anchor="start" x="56.31" y="-798.6" font-family="Arial" font-size="14.00">created_at </text>
<text text-anchor="start" x="126.36" y="-798.6" font-family="Arial" font-size="14.00" fill="#666666">[timestamp]</text>
<polygon fill="none" stroke="black" points="49.31,-755.6 49.31,-786.4 431,-786.4 431,-755.6 49.31,-755.6"/>
<text text-anchor="start" x="56.31" y="-767.8" font-family="Arial" font-size="14.00">id </text>
<text text-anchor="start" x="71.1" y="-767.8" font-family="Arial" font-size="14.00" fill="#666666">[bigint unsigned]</text>
<polygon fill="none" stroke="black" points="49.31,-724.8 49.31,-755.6 431,-755.6 431,-724.8 49.31,-724.8"/>
<text text-anchor="start" x="56.31" y="-737" font-family="Arial" font-size="14.00">order_number </text>
<text text-anchor="start" x="148.14" y="-737" font-family="Arial" font-size="14.00" fill="#666666">[varchar(255)]</text>
<polygon fill="none" stroke="black" points="49.31,-694 49.31,-724.8 431,-724.8 431,-694 49.31,-694"/>
<text text-anchor="start" x="56.31" y="-706.2" font-family="Arial" font-size="14.00">shipping_address </text>
<text text-anchor="start" x="169.95" y="-706.2" font-family="Arial" font-size="14.00" fill="#666666">[varchar(255)]</text>
<polygon fill="none" stroke="black" points="49.31,-663.2 49.31,-694 431,-694 431,-663.2 49.31,-663.2"/>
<text text-anchor="start" x="56.31" y="-675.4" font-family="Arial" font-size="14.00">shipping_city </text>
<text text-anchor="start" x="141.14" y="-675.4" font-family="Arial" font-size="14.00" fill="#666666">[varchar(255)]</text>
<polygon fill="none" stroke="black" points="49.31,-632.4 49.31,-663.2 431,-663.2 431,-632.4 49.31,-632.4"/>
<text text-anchor="start" x="56.31" y="-644.6" font-family="Arial" font-size="14.00">shipping_country </text>
<text text-anchor="start" x="166.05" y="-644.6" font-family="Arial" font-size="14.00" fill="#666666">[varchar(255)]</text>
<polygon fill="none" stroke="black" points="49.31,-601.6 49.31,-632.4 431,-632.4 431,-601.6 49.31,-601.6"/>
<text text-anchor="start" x="56.31" y="-613.8" font-family="Arial" font-size="14.00">shipping_phone </text>
<text text-anchor="start" x="159.07" y="-613.8" font-family="Arial" font-size="14.00" fill="#666666">[varchar(255)]</text>
<polygon fill="none" stroke="black" points="49.31,-570.8 49.31,-601.6 431,-601.6 431,-570.8 49.31,-570.8"/>
<text text-anchor="start" x="56.31" y="-583" font-family="Arial" font-size="14.00">status </text>
<text text-anchor="start" x="97.55" y="-583" font-family="Arial" font-size="14.00" fill="#666666">[enum(&#39;pending&#39;,&#39;processing&#39;,&#39;completed&#39;,&#39;cancelled&#39;)]</text>
<polygon fill="none" stroke="black" points="49.31,-540 49.31,-570.8 431,-570.8 431,-540 49.31,-540"/>
<text text-anchor="start" x="56.31" y="-552.2" font-family="Arial" font-size="14.00">total_amount </text>
<text text-anchor="start" x="141.15" y="-552.2" font-family="Arial" font-size="14.00" fill="#666666">[decimal(10,2)]</text>
<polygon fill="none" stroke="black" points="49.31,-509.2 49.31,-540 431,-540 431,-509.2 49.31,-509.2"/>
<text text-anchor="start" x="56.31" y="-521.4" font-family="Arial" font-size="14.00">updated_at </text>
<text text-anchor="start" x="130.27" y="-521.4" font-family="Arial" font-size="14.00" fill="#666666">[timestamp]</text>
<polygon fill="none" stroke="black" points="49.31,-478.4 49.31,-509.2 431,-509.2 431,-478.4 49.31,-478.4"/>
<text text-anchor="start" x="56.31" y="-490.6" font-family="Arial" font-size="14.00">user_id </text>
<text text-anchor="start" x="106.12" y="-490.6" font-family="Arial" font-size="14.00" fill="#666666">[bigint unsigned]</text>
</g>
<!-- order_items&#45;&gt;orders -->
<g id="edge2" class="edge">
<title>order_items:order_id&#45;&gt;orders:id</title>
<path fill="none" stroke="black" d="M507.91,-1158.09C436.57,-1128.74 516.9,-771 432,-771"/>
<polygon fill="black" stroke="black" points="507.77,-1158.06 516.75,-1164.36 513.01,-1159.06 517.27,-1159.87 517.27,-1159.87 517.27,-1159.87 513.01,-1159.06 518.44,-1155.52 507.77,-1158.06"/>
<text text-anchor="start" x="276.98" y="-1170" font-family="Arial" font-size="10.00">FOREIGN KEY (order_id) REFERENCES orders (id)</text>
</g>
<!-- products -->
<g id="node5" class="node">
<title>products</title>
<polygon fill="#efefef" stroke="none" points="534.92,-817.2 534.92,-852.8 735.4,-852.8 735.4,-817.2 534.92,-817.2"/>
<polygon fill="none" stroke="black" points="534.92,-817.2 534.92,-852.8 735.4,-852.8 735.4,-817.2 534.92,-817.2"/>
<text text-anchor="start" x="541.92" y="-830.6" font-family="Arial Bold" font-size="18.00">products</text>
<text text-anchor="start" x="603.91" y="-830.6" font-family="Arial" font-size="14.00">    </text>
<text text-anchor="start" x="635.02" y="-830.6" font-family="Arial" font-size="14.00" fill="#666666">[BASE TABLE]</text>
<polygon fill="none" stroke="black" points="534.92,-786.4 534.92,-817.2 735.4,-817.2 735.4,-786.4 534.92,-786.4"/>
<text text-anchor="start" x="541.92" y="-798.6" font-family="Arial" font-size="14.00">category_id </text>
<text text-anchor="start" x="618.19" y="-798.6" font-family="Arial" font-size="14.00" fill="#666666">[bigint unsigned]</text>
<polygon fill="none" stroke="black" points="534.92,-755.6 534.92,-786.4 735.4,-786.4 735.4,-755.6 534.92,-755.6"/>
<text text-anchor="start" x="541.92" y="-767.8" font-family="Arial" font-size="14.00">created_at </text>
<text text-anchor="start" x="611.97" y="-767.8" font-family="Arial" font-size="14.00" fill="#666666">[timestamp]</text>
<polygon fill="none" stroke="black" points="534.92,-724.8 534.92,-755.6 735.4,-755.6 735.4,-724.8 534.92,-724.8"/>
<text text-anchor="start" x="541.92" y="-737" font-family="Arial" font-size="14.00">deleted_at </text>
<text text-anchor="start" x="611.2" y="-737" font-family="Arial" font-size="14.00" fill="#666666">[timestamp]</text>
<polygon fill="none" stroke="black" points="534.92,-694 534.92,-724.8 735.4,-724.8 735.4,-694 534.92,-694"/>
<text text-anchor="start" x="541.92" y="-706.2" font-family="Arial" font-size="14.00">description </text>
<text text-anchor="start" x="613.51" y="-706.2" font-family="Arial" font-size="14.00" fill="#666666">[text]</text>
<polygon fill="none" stroke="black" points="534.92,-663.2 534.92,-694 735.4,-694 735.4,-663.2 534.92,-663.2"/>
<text text-anchor="start" x="541.92" y="-675.4" font-family="Arial" font-size="14.00">id </text>
<text text-anchor="start" x="556.7" y="-675.4" font-family="Arial" font-size="14.00" fill="#666666">[bigint unsigned]</text>
<polygon fill="none" stroke="black" points="534.92,-632.4 534.92,-663.2 735.4,-663.2 735.4,-632.4 534.92,-632.4"/>
<text text-anchor="start" x="541.92" y="-644.6" font-family="Arial" font-size="14.00">is_active </text>
<text text-anchor="start" x="600.28" y="-644.6" font-family="Arial" font-size="14.00" fill="#666666">[tinyint(1)]</text>
<polygon fill="none" stroke="black" points="534.92,-601.6 534.92,-632.4 735.4,-632.4 735.4,-601.6 534.92,-601.6"/>
<text text-anchor="start" x="541.92" y="-613.8" font-family="Arial" font-size="14.00">name </text>
<text text-anchor="start" x="580.83" y="-613.8" font-family="Arial" font-size="14.00" fill="#666666">[varchar(255)]</text>
<polygon fill="none" stroke="black" points="534.92,-570.8 534.92,-601.6 735.4,-601.6 735.4,-570.8 534.92,-570.8"/>
<text text-anchor="start" x="541.92" y="-583" font-family="Arial" font-size="14.00">price </text>
<text text-anchor="start" x="576.15" y="-583" font-family="Arial" font-size="14.00" fill="#666666">[decimal(10,2)]</text>
<polygon fill="none" stroke="black" points="534.92,-540 534.92,-570.8 735.4,-570.8 735.4,-540 534.92,-540"/>
<text text-anchor="start" x="541.92" y="-552.2" font-family="Arial" font-size="14.00">slug </text>
<text text-anchor="start" x="571.49" y="-552.2" font-family="Arial" font-size="14.00" fill="#666666">[varchar(255)]</text>
<polygon fill="none" stroke="black" points="534.92,-509.2 534.92,-540 735.4,-540 735.4,-509.2 534.92,-509.2"/>
<text text-anchor="start" x="541.92" y="-521.4" font-family="Arial" font-size="14.00">stock </text>
<text text-anchor="start" x="578.48" y="-521.4" font-family="Arial" font-size="14.00" fill="#666666">[int]</text>
<polygon fill="none" stroke="black" points="534.92,-478.4 534.92,-509.2 735.4,-509.2 735.4,-478.4 534.92,-478.4"/>
<text text-anchor="start" x="541.92" y="-490.6" font-family="Arial" font-size="14.00">updated_at </text>
<text text-anchor="start" x="615.88" y="-490.6" font-family="Arial" font-size="14.00" fill="#666666">[timestamp]</text>
</g>
<!-- order_items&#45;&gt;products -->
<g id="edge3" class="edge">
<title>order_items:product_id&#45;&gt;products:id</title>
<path fill="none" stroke="black" d="M754.61,-1128.5C822.3,-1118.68 791.15,-1008.02 743.39,-947.4 684.33,-872.44 593.94,-970.99 534.92,-896 505.04,-858.04 485.61,-678.6 533.92,-678.6"/>
<polygon fill="black" stroke="black" points="754.7,-1128.49 744.41,-1124.69 749.38,-1128.86 745.06,-1129.15 745.06,-1129.15 745.06,-1129.15 749.38,-1128.86 745.03,-1133.67 754.7,-1128.49"/>
<text text-anchor="start" x="751.39" y="-1139.2" font-family="Arial" font-size="10.00">FOREIGN KEY (product_id) REFERENCES products (id)</text>
</g>
<!-- users -->
<g id="node6" class="node">
<title>users</title>
<polygon fill="#efefef" stroke="none" points="134.73,-305 134.73,-340.6 345.59,-340.6 345.59,-305 134.73,-305"/>
<polygon fill="none" stroke="black" points="134.73,-305 134.73,-340.6 345.59,-340.6 345.59,-305 134.73,-305"/>
<text text-anchor="start" x="159.42" y="-318.4" font-family="Arial Bold" font-size="18.00">users</text>
<text text-anchor="start" x="196.41" y="-318.4" font-family="Arial" font-size="14.00">    </text>
<text text-anchor="start" x="227.53" y="-318.4" font-family="Arial" font-size="14.00" fill="#666666">[BASE TABLE]</text>
<polygon fill="none" stroke="black" points="134.73,-274.2 134.73,-305 345.59,-305 345.59,-274.2 134.73,-274.2"/>
<text text-anchor="start" x="141.73" y="-286.4" font-family="Arial" font-size="14.00">created_at </text>
<text text-anchor="start" x="211.77" y="-286.4" font-family="Arial" font-size="14.00" fill="#666666">[timestamp]</text>
<polygon fill="none" stroke="black" points="134.73,-243.4 134.73,-274.2 345.59,-274.2 345.59,-243.4 134.73,-243.4"/>
<text text-anchor="start" x="141.73" y="-255.6" font-family="Arial" font-size="14.00">email </text>
<text text-anchor="start" x="179.07" y="-255.6" font-family="Arial" font-size="14.00" fill="#666666">[varchar(255)]</text>
<polygon fill="none" stroke="black" points="134.73,-212.6 134.73,-243.4 345.59,-243.4 345.59,-212.6 134.73,-212.6"/>
<text text-anchor="start" x="141.73" y="-224.8" font-family="Arial" font-size="14.00">email_verified_at </text>
<text text-anchor="start" x="251.45" y="-224.8" font-family="Arial" font-size="14.00" fill="#666666">[timestamp]</text>
<polygon fill="none" stroke="black" points="134.73,-181.8 134.73,-212.6 345.59,-212.6 345.59,-181.8 134.73,-181.8"/>
<text text-anchor="start" x="141.73" y="-194" font-family="Arial" font-size="14.00">id </text>
<text text-anchor="start" x="156.51" y="-194" font-family="Arial" font-size="14.00" fill="#666666">[bigint unsigned]</text>
<polygon fill="none" stroke="black" points="134.73,-151 134.73,-181.8 345.59,-181.8 345.59,-151 134.73,-151"/>
<text text-anchor="start" x="141.73" y="-163.2" font-family="Arial" font-size="14.00">name </text>
<text text-anchor="start" x="180.64" y="-163.2" font-family="Arial" font-size="14.00" fill="#666666">[varchar(255)]</text>
<polygon fill="none" stroke="black" points="134.73,-120.2 134.73,-151 345.59,-151 345.59,-120.2 134.73,-120.2"/>
<text text-anchor="start" x="141.73" y="-132.4" font-family="Arial" font-size="14.00">password </text>
<text text-anchor="start" x="205.53" y="-132.4" font-family="Arial" font-size="14.00" fill="#666666">[varchar(255)]</text>
<polygon fill="none" stroke="black" points="134.73,-89.4 134.73,-120.2 345.59,-120.2 345.59,-89.4 134.73,-89.4"/>
<text text-anchor="start" x="141.73" y="-101.6" font-family="Arial" font-size="14.00">remember_token </text>
<text text-anchor="start" x="251.44" y="-101.6" font-family="Arial" font-size="14.00" fill="#666666">[varchar(100)]</text>
<polygon fill="none" stroke="black" points="134.73,-58.6 134.73,-89.4 345.59,-89.4 345.59,-58.6 134.73,-58.6"/>
<text text-anchor="start" x="141.73" y="-70.8" font-family="Arial" font-size="14.00">updated_at </text>
<text text-anchor="start" x="215.68" y="-70.8" font-family="Arial" font-size="14.00" fill="#666666">[timestamp]</text>
</g>
<!-- orders&#45;&gt;users -->
<g id="edge4" class="edge">
<title>orders:user_id&#45;&gt;users:id</title>
<path fill="none" stroke="black" d="M240.95,-467.27C249.3,-417.52 321.26,-437.54 345.59,-383.8 379.79,-308.25 429.52,-197.2 346.59,-197.2"/>
<polygon fill="black" stroke="black" points="240.96,-467.1 235.7,-476.72 240.55,-472.42 240.21,-476.73 240.21,-476.73 240.21,-476.73 240.55,-472.42 244.67,-477.42 240.96,-467.1"/>
<text text-anchor="start" x="7" y="-487.4" font-family="Arial" font-size="10.00">FOREIGN KEY (user_id) REFERENCES users (id)</text>
</g>
<!-- payments -->
<g id="node4" class="node">
<title>payments</title>
<polygon fill="#efefef" stroke="none" points="68.37,-1252.4 68.37,-1288 411.94,-1288 411.94,-1252.4 68.37,-1252.4"/>
<polygon fill="none" stroke="black" points="68.37,-1252.4 68.37,-1288 411.94,-1288 411.94,-1252.4 68.37,-1252.4"/>
<text text-anchor="start" x="143.42" y="-1265.8" font-family="Arial Bold" font-size="18.00">payments</text>
<text text-anchor="start" x="212.41" y="-1265.8" font-family="Arial" font-size="14.00">    </text>
<text text-anchor="start" x="243.52" y="-1265.8" font-family="Arial" font-size="14.00" fill="#666666">[BASE TABLE]</text>
<polygon fill="none" stroke="black" points="68.37,-1221.6 68.37,-1252.4 411.94,-1252.4 411.94,-1221.6 68.37,-1221.6"/>
<text text-anchor="start" x="75.37" y="-1233.8" font-family="Arial" font-size="14.00">amount </text>
<text text-anchor="start" x="125.96" y="-1233.8" font-family="Arial" font-size="14.00" fill="#666666">[decimal(10,2)]</text>
<polygon fill="none" stroke="black" points="68.37,-1190.8 68.37,-1221.6 411.94,-1221.6 411.94,-1190.8 68.37,-1190.8"/>
<text text-anchor="start" x="75.37" y="-1203" font-family="Arial" font-size="14.00">created_at </text>
<text text-anchor="start" x="145.42" y="-1203" font-family="Arial" font-size="14.00" fill="#666666">[timestamp]</text>
<polygon fill="none" stroke="black" points="68.37,-1160 68.37,-1190.8 411.94,-1190.8 411.94,-1160 68.37,-1160"/>
<text text-anchor="start" x="75.37" y="-1172.2" font-family="Arial" font-size="14.00">id </text>
<text text-anchor="start" x="90.16" y="-1172.2" font-family="Arial" font-size="14.00" fill="#666666">[bigint unsigned]</text>
<polygon fill="none" stroke="black" points="68.37,-1129.2 68.37,-1160 411.94,-1160 411.94,-1129.2 68.37,-1129.2"/>
<text text-anchor="start" x="75.37" y="-1141.4" font-family="Arial" font-size="14.00">order_id </text>
<text text-anchor="start" x="130.62" y="-1141.4" font-family="Arial" font-size="14.00" fill="#666666">[bigint unsigned]</text>
<polygon fill="none" stroke="black" points="68.37,-1098.4 68.37,-1129.2 411.94,-1129.2 411.94,-1098.4 68.37,-1098.4"/>
<text text-anchor="start" x="75.37" y="-1110.6" font-family="Arial" font-size="14.00">paid_at </text>
<text text-anchor="start" x="125.19" y="-1110.6" font-family="Arial" font-size="14.00" fill="#666666">[timestamp]</text>
<polygon fill="none" stroke="black" points="68.37,-1067.6 68.37,-1098.4 411.94,-1098.4 411.94,-1067.6 68.37,-1067.6"/>
<text text-anchor="start" x="75.37" y="-1079.8" font-family="Arial" font-size="14.00">payment_method </text>
<text text-anchor="start" x="187.44" y="-1079.8" font-family="Arial" font-size="14.00" fill="#666666">[varchar(255)]</text>
<polygon fill="none" stroke="black" points="68.37,-1036.8 68.37,-1067.6 411.94,-1067.6 411.94,-1036.8 68.37,-1036.8"/>
<text text-anchor="start" x="75.37" y="-1049" font-family="Arial" font-size="14.00">status </text>
<text text-anchor="start" x="116.61" y="-1049" font-family="Arial" font-size="14.00" fill="#666666">[enum(&#39;pending&#39;,&#39;completed&#39;,&#39;failed&#39;,&#39;refunded&#39;)]</text>
<polygon fill="none" stroke="black" points="68.37,-1006 68.37,-1036.8 411.94,-1036.8 411.94,-1006 68.37,-1006"/>
<text text-anchor="start" x="75.37" y="-1018.2" font-family="Arial" font-size="14.00">transaction_id </text>
<text text-anchor="start" x="166.42" y="-1018.2" font-family="Arial" font-size="14.00" fill="#666666">[varchar(255)]</text>
<polygon fill="none" stroke="black" points="68.37,-975.2 68.37,-1006 411.94,-1006 411.94,-975.2 68.37,-975.2"/>
<text text-anchor="start" x="75.37" y="-987.4" font-family="Arial" font-size="14.00">updated_at </text>
<text text-anchor="start" x="149.33" y="-987.4" font-family="Arial" font-size="14.00" fill="#666666">[timestamp]</text>
</g>
<!-- payments&#45;&gt;orders -->
<g id="edge5" class="edge">
<title>payments:order_id&#45;&gt;orders:id</title>
<path fill="none" stroke="black" d="M421.59,-1139.03C456.95,-1092.55 470.56,-771 432,-771"/>
<polygon fill="black" stroke="black" points="421.63,-1139 410.79,-1140.64 417.15,-1141.89 413.51,-1144.24 413.51,-1144.24 413.51,-1144.24 417.15,-1141.89 415.66,-1148.2 421.63,-1139"/>
<text text-anchor="start" x="295.97" y="-1128.6" font-family="Arial" font-size="10.00">FOREIGN KEY (order_id) REFERENCES orders (id)</text>
</g>
<!-- products&#45;&gt;categories -->
<g id="edge6" class="edge">
<title>products:category_id&#45;&gt;categories:id</title>
<path fill="none" stroke="black" d="M746.65,-800.48C860.7,-770.62 862.46,-243.4 741.88,-243.4"/>
<polygon fill="black" stroke="black" points="746.65,-800.48 736.15,-797.29 741.36,-801.16 737.06,-801.71 737.06,-801.71 737.06,-801.71 741.36,-801.16 737.3,-806.22 746.65,-800.48"/>
<text text-anchor="start" x="743.4" y="-811.8" font-family="Arial" font-size="10.00">FOREIGN KEY (category_id) REFERENCES categories (id)</text>
</g>
</g>
</svg>
