<?xml version="1.0" encoding="UTF-8" standalone="no"?>
<!DOCTYPE svg PUBLIC "-//W3C//DTD SVG 1.1//EN"
 "http://www.w3.org/Graphics/SVG/1.1/DTD/svg11.dtd">
<!-- Generated by graphviz version 12.1.2 (20240928.0832)
 -->
<!-- Title: users Pages: 1 -->
<svg width="482pt" height="879pt"
 viewBox="0.00 0.00 482.20 879.20" xmlns="http://www.w3.org/2000/svg" xmlns:xlink="http://www.w3.org/1999/xlink">
<g id="graph0" class="graph" transform="scale(1 1) rotate(0) translate(4 875.2)">
<title>users</title>
<polygon fill="white" stroke="none" points="-4,4 -4,-875.2 478.2,-875.2 478.2,4 -4,4"/>
<!-- users -->
<g id="node1" class="node">
<title>users</title>
<polygon fill="#efefef" stroke="none" points="134.73,-292.6 134.73,-328.2 345.59,-328.2 345.59,-292.6 134.73,-292.6"/>
<polygon fill="none" stroke="black" points="134.73,-292.6 134.73,-328.2 345.59,-328.2 345.59,-292.6 134.73,-292.6"/>
<text text-anchor="start" x="159.42" y="-306" font-family="Arial Bold" font-size="18.00">users</text>
<text text-anchor="start" x="196.41" y="-306" font-family="Arial" font-size="14.00">    </text>
<text text-anchor="start" x="227.53" y="-306" font-family="Arial" font-size="14.00" fill="#666666">[BASE TABLE]</text>
<polygon fill="none" stroke="black" points="134.73,-261.8 134.73,-292.6 345.59,-292.6 345.59,-261.8 134.73,-261.8"/>
<text text-anchor="start" x="141.73" y="-274" font-family="Arial" font-size="14.00">created_at </text>
<text text-anchor="start" x="211.77" y="-274" font-family="Arial" font-size="14.00" fill="#666666">[timestamp]</text>
<polygon fill="none" stroke="black" points="134.73,-231 134.73,-261.8 345.59,-261.8 345.59,-231 134.73,-231"/>
<text text-anchor="start" x="141.73" y="-243.2" font-family="Arial" font-size="14.00">email </text>
<text text-anchor="start" x="179.07" y="-243.2" font-family="Arial" font-size="14.00" fill="#666666">[varchar(255)]</text>
<polygon fill="none" stroke="black" points="134.73,-200.2 134.73,-231 345.59,-231 345.59,-200.2 134.73,-200.2"/>
<text text-anchor="start" x="141.73" y="-212.4" font-family="Arial" font-size="14.00">email_verified_at </text>
<text text-anchor="start" x="251.45" y="-212.4" font-family="Arial" font-size="14.00" fill="#666666">[timestamp]</text>
<polygon fill="none" stroke="black" points="134.73,-169.4 134.73,-200.2 345.59,-200.2 345.59,-169.4 134.73,-169.4"/>
<text text-anchor="start" x="141.73" y="-181.6" font-family="Arial" font-size="14.00">id </text>
<text text-anchor="start" x="156.51" y="-181.6" font-family="Arial" font-size="14.00" fill="#666666">[bigint unsigned]</text>
<polygon fill="none" stroke="black" points="134.73,-138.6 134.73,-169.4 345.59,-169.4 345.59,-138.6 134.73,-138.6"/>
<text text-anchor="start" x="141.73" y="-150.8" font-family="Arial" font-size="14.00">name </text>
<text text-anchor="start" x="180.64" y="-150.8" font-family="Arial" font-size="14.00" fill="#666666">[varchar(255)]</text>
<polygon fill="none" stroke="black" points="134.73,-107.8 134.73,-138.6 345.59,-138.6 345.59,-107.8 134.73,-107.8"/>
<text text-anchor="start" x="141.73" y="-120" font-family="Arial" font-size="14.00">password </text>
<text text-anchor="start" x="205.53" y="-120" font-family="Arial" font-size="14.00" fill="#666666">[varchar(255)]</text>
<polygon fill="none" stroke="black" points="134.73,-77 134.73,-107.8 345.59,-107.8 345.59,-77 134.73,-77"/>
<text text-anchor="start" x="141.73" y="-89.2" font-family="Arial" font-size="14.00">remember_token </text>
<text text-anchor="start" x="251.44" y="-89.2" font-family="Arial" font-size="14.00" fill="#666666">[varchar(100)]</text>
<polygon fill="none" stroke="black" points="134.73,-46.2 134.73,-77 345.59,-77 345.59,-46.2 134.73,-46.2"/>
<text text-anchor="start" x="141.73" y="-58.4" font-family="Arial" font-size="14.00">updated_at </text>
<text text-anchor="start" x="215.68" y="-58.4" font-family="Arial" font-size="14.00" fill="#666666">[timestamp]</text>
<polygon fill="none" stroke="black" stroke-width="3" points="133.23,-44.7 133.23,-329.7 347.09,-329.7 347.09,-44.7 133.23,-44.7"/>
</g>
<!-- orders -->
<g id="node2" class="node">
<title>orders</title>
<polygon fill="#efefef" stroke="none" points="49.31,-792.4 49.31,-828 431,-828 431,-792.4 49.31,-792.4"/>
<polygon fill="none" stroke="black" points="49.31,-792.4 49.31,-828 431,-828 431,-792.4 49.31,-792.4"/>
<text text-anchor="start" x="155.42" y="-805.8" font-family="Arial Bold" font-size="18.00">orders</text>
<text text-anchor="start" x="200.4" y="-805.8" font-family="Arial" font-size="14.00">    </text>
<text text-anchor="start" x="231.52" y="-805.8" font-family="Arial" font-size="14.00" fill="#666666">[BASE TABLE]</text>
<polygon fill="none" stroke="black" points="49.31,-761.6 49.31,-792.4 431,-792.4 431,-761.6 49.31,-761.6"/>
<text text-anchor="start" x="56.31" y="-773.8" font-family="Arial" font-size="14.00">created_at </text>
<text text-anchor="start" x="126.36" y="-773.8" font-family="Arial" font-size="14.00" fill="#666666">[timestamp]</text>
<polygon fill="none" stroke="black" points="49.31,-730.8 49.31,-761.6 431,-761.6 431,-730.8 49.31,-730.8"/>
<text text-anchor="start" x="56.31" y="-743" font-family="Arial" font-size="14.00">id </text>
<text text-anchor="start" x="71.1" y="-743" font-family="Arial" font-size="14.00" fill="#666666">[bigint unsigned]</text>
<polygon fill="none" stroke="black" points="49.31,-700 49.31,-730.8 431,-730.8 431,-700 49.31,-700"/>
<text text-anchor="start" x="56.31" y="-712.2" font-family="Arial" font-size="14.00">order_number </text>
<text text-anchor="start" x="148.14" y="-712.2" font-family="Arial" font-size="14.00" fill="#666666">[varchar(255)]</text>
<polygon fill="none" stroke="black" points="49.31,-669.2 49.31,-700 431,-700 431,-669.2 49.31,-669.2"/>
<text text-anchor="start" x="56.31" y="-681.4" font-family="Arial" font-size="14.00">shipping_address </text>
<text text-anchor="start" x="169.95" y="-681.4" font-family="Arial" font-size="14.00" fill="#666666">[varchar(255)]</text>
<polygon fill="none" stroke="black" points="49.31,-638.4 49.31,-669.2 431,-669.2 431,-638.4 49.31,-638.4"/>
<text text-anchor="start" x="56.31" y="-650.6" font-family="Arial" font-size="14.00">shipping_city </text>
<text text-anchor="start" x="141.14" y="-650.6" font-family="Arial" font-size="14.00" fill="#666666">[varchar(255)]</text>
<polygon fill="none" stroke="black" points="49.31,-607.6 49.31,-638.4 431,-638.4 431,-607.6 49.31,-607.6"/>
<text text-anchor="start" x="56.31" y="-619.8" font-family="Arial" font-size="14.00">shipping_country </text>
<text text-anchor="start" x="166.05" y="-619.8" font-family="Arial" font-size="14.00" fill="#666666">[varchar(255)]</text>
<polygon fill="none" stroke="black" points="49.31,-576.8 49.31,-607.6 431,-607.6 431,-576.8 49.31,-576.8"/>
<text text-anchor="start" x="56.31" y="-589" font-family="Arial" font-size="14.00">shipping_phone </text>
<text text-anchor="start" x="159.07" y="-589" font-family="Arial" font-size="14.00" fill="#666666">[varchar(255)]</text>
<polygon fill="none" stroke="black" points="49.31,-546 49.31,-576.8 431,-576.8 431,-546 49.31,-546"/>
<text text-anchor="start" x="56.31" y="-558.2" font-family="Arial" font-size="14.00">status </text>
<text text-anchor="start" x="97.55" y="-558.2" font-family="Arial" font-size="14.00" fill="#666666">[enum(&#39;pending&#39;,&#39;processing&#39;,&#39;completed&#39;,&#39;cancelled&#39;)]</text>
<polygon fill="none" stroke="black" points="49.31,-515.2 49.31,-546 431,-546 431,-515.2 49.31,-515.2"/>
<text text-anchor="start" x="56.31" y="-527.4" font-family="Arial" font-size="14.00">total_amount </text>
<text text-anchor="start" x="141.15" y="-527.4" font-family="Arial" font-size="14.00" fill="#666666">[decimal(10,2)]</text>
<polygon fill="none" stroke="black" points="49.31,-484.4 49.31,-515.2 431,-515.2 431,-484.4 49.31,-484.4"/>
<text text-anchor="start" x="56.31" y="-496.6" font-family="Arial" font-size="14.00">updated_at </text>
<text text-anchor="start" x="130.27" y="-496.6" font-family="Arial" font-size="14.00" fill="#666666">[timestamp]</text>
<polygon fill="none" stroke="black" points="49.31,-453.6 49.31,-484.4 431,-484.4 431,-453.6 49.31,-453.6"/>
<text text-anchor="start" x="56.31" y="-465.8" font-family="Arial" font-size="14.00">user_id </text>
<text text-anchor="start" x="106.12" y="-465.8" font-family="Arial" font-size="14.00" fill="#666666">[bigint unsigned]</text>
</g>
<!-- orders&#45;&gt;users -->
<g id="edge1" class="edge">
<title>orders:user_id&#45;&gt;users:id</title>
<path fill="none" stroke="black" d="M241.11,-442.4C250.13,-398.06 320.92,-423.09 345.59,-374.4 383.67,-299.23 430.86,-184.8 346.59,-184.8"/>
<polygon fill="black" stroke="black" points="241.12,-442.31 235.71,-451.85 240.62,-447.62 240.22,-451.93 240.22,-451.93 240.22,-451.93 240.62,-447.62 244.67,-452.68 241.12,-442.31"/>
<text text-anchor="start" x="7" y="-462.6" font-family="Arial" font-size="10.00">FOREIGN KEY (user_id) REFERENCES users (id)</text>
</g>
</g>
</svg>
